<?xml version="1.0" encoding="UTF-8"?>
<svg xmlns="http://www.w3.org/2000/svg" xmlns:xlink="http://www.w3.org/1999/xlink" width="150px" height="150px" viewBox="0 0 150 150" version="1.1">
<g id="surface1">
<path style=" stroke:none;fill-rule:evenodd;fill:rgb(80.392158%,67.450982%,43.921569%);fill-opacity:1;" d="M 73.9375 30.664062 C 72.570312 32.367188 72.269531 33.191406 72.660156 34.210938 C 72.800781 34.582031 72.789062 34.597656 72.476562 34.5 C 71.535156 34.199219 71.210938 34.234375 70.757812 34.691406 C 70.378906 35.066406 70.3125 35.246094 70.3125 35.867188 C 70.3125 36.273438 70.378906 36.644531 70.460938 36.695312 C 70.539062 36.742188 70.605469 36.6875 70.605469 36.566406 C 70.605469 35.921875 71.953125 35.683594 72.769531 36.183594 C 73.378906 36.550781 73.574219 37.066406 73.503906 38.085938 C 73.359375 40.089844 71.367188 41.460938 69.246094 41.023438 C 67.3125 40.621094 65.921875 38.691406 66.730469 37.53125 C 67 37.148438 67.609375 37.101562 67.984375 37.441406 C 68.226562 37.660156 68.25 37.640625 68.347656 37.117188 C 68.414062 36.761719 68.378906 36.347656 68.246094 35.96875 C 67.972656 35.179688 67.476562 35.101562 66.757812 35.730469 C 66.269531 36.160156 66.253906 36.164062 66.320312 35.832031 C 66.355469 35.640625 66.285156 35.296875 66.167969 35.066406 C 65.859375 34.46875 64.648438 33.203125 64.484375 33.304688 C 64.304688 33.417969 63.882812 34.941406 63.851562 35.59375 C 63.839844 35.878906 63.878906 36.304688 63.941406 36.546875 C 64.054688 36.976562 64.050781 36.980469 63.769531 36.730469 C 63.40625 36.410156 62.757812 36.398438 62.636719 36.707031 C 62.46875 37.144531 62.550781 37.6875 62.859375 38.1875 C 63.164062 38.679688 63.171875 38.683594 63.378906 38.386719 C 63.875 37.679688 64.746094 38.25 64.746094 39.285156 C 64.746094 40.828125 63.058594 42.515625 61.761719 42.273438 C 61.1875 42.164062 60.277344 41.433594 59.964844 40.828125 C 59.632812 40.183594 59.671875 38.988281 60.050781 38.246094 C 60.222656 37.910156 60.328125 37.578125 60.28125 37.507812 C 60.148438 37.292969 59.023438 37.160156 58.84375 37.339844 C 58.585938 37.59375 58.492188 37.53125 58.394531 37.054688 C 58.28125 36.488281 57.21875 35.375 56.523438 35.089844 L 55.992188 34.875 L 56.414062 35.90625 C 56.871094 37.03125 57.445312 37.941406 57.53125 37.679688 C 57.5625 37.585938 57.414062 37.214844 57.199219 36.847656 C 56.984375 36.480469 56.855469 36.179688 56.914062 36.179688 C 57.148438 36.179688 57.871094 37.171875 58.015625 37.699219 C 58.164062 38.230469 58.1875 38.25 58.441406 38.015625 C 58.796875 37.695312 58.859375 37.824219 59.046875 39.28125 C 59.128906 39.953125 59.261719 40.707031 59.339844 40.957031 C 59.507812 41.5 60.03125 42.023438 60.488281 42.113281 C 60.671875 42.148438 60.921875 42.257812 61.042969 42.359375 C 61.417969 42.671875 62.710938 42.585938 63.316406 42.210938 C 64.035156 41.765625 64.707031 40.820312 64.984375 39.867188 C 65.25 38.964844 65.183594 38.445312 64.671875 37.4375 C 64.265625 36.632812 64.234375 36.3125 64.46875 35.367188 C 64.652344 34.640625 64.699219 34.605469 64.988281 34.972656 C 65.601562 35.75 65.820312 36.40625 65.792969 37.421875 C 65.773438 38.25 65.835938 38.582031 66.140625 39.203125 C 66.789062 40.53125 68.195312 41.464844 69.964844 41.746094 L 70.824219 41.878906 L 69.714844 41.839844 C 68.328125 41.785156 67.371094 41.304688 66.339844 40.148438 C 65.875 39.625 65.625 39.433594 65.625 39.597656 C 65.625 39.996094 64.675781 41.777344 64.214844 42.246094 C 63.316406 43.152344 61.597656 43.492188 60.414062 43 C 60.128906 42.878906 59.945312 42.855469 59.996094 42.941406 C 60.34375 43.5 61.992188 43.65625 63.480469 43.273438 C 64.648438 42.972656 65.195312 42.625 65.710938 41.859375 C 65.9375 41.515625 66.144531 41.207031 66.167969 41.171875 C 66.191406 41.140625 66.359375 41.25 66.542969 41.417969 C 67.355469 42.171875 68.101562 42.40625 69.855469 42.457031 C 71.136719 42.496094 71.664062 42.453125 72.144531 42.265625 C 72.9375 41.964844 74.160156 40.6875 74.632812 39.671875 C 74.925781 39.042969 75.003906 38.957031 75.089844 39.191406 C 75.40625 40.089844 75.613281 40.433594 76.257812 41.148438 C 77.265625 42.265625 77.800781 42.472656 79.707031 42.476562 C 81.472656 42.480469 82.230469 42.28125 83.113281 41.574219 C 83.648438 41.140625 83.6875 41.132812 83.832031 41.398438 C 84.226562 42.121094 85.207031 42.898438 86.0625 43.164062 C 87.257812 43.53125 89.144531 43.53125 89.703125 43.164062 C 90.25 42.808594 90.09375 42.6875 89.488281 43 C 88.847656 43.332031 87.316406 43.230469 86.472656 42.796875 C 85.609375 42.355469 84.882812 41.292969 84.3125 39.632812 C 84.226562 39.375 84.191406 39.386719 83.953125 39.777344 C 83.230469 40.972656 81.773438 41.769531 80.203125 41.835938 L 79.175781 41.878906 L 79.980469 41.730469 C 81.289062 41.484375 82.046875 41.152344 82.730469 40.523438 C 83.621094 39.703125 84.082031 38.746094 84.082031 37.714844 C 84.082031 36.585938 84.328125 35.714844 84.8125 35.132812 L 85.222656 34.644531 L 85.398438 35.292969 C 85.492188 35.648438 85.53125 36.242188 85.484375 36.609375 L 85.398438 37.28125 L 85.683594 36.765625 C 85.851562 36.472656 85.976562 35.96875 85.980469 35.585938 C 85.988281 34.847656 85.625 33.464844 85.386719 33.316406 C 85.21875 33.210938 84.199219 34.226562 83.773438 34.921875 C 83.621094 35.171875 83.496094 35.53125 83.496094 35.71875 L 83.496094 36.0625 L 83.046875 35.683594 C 82.492188 35.21875 82.121094 35.199219 81.820312 35.628906 C 81.578125 35.972656 81.511719 37.148438 81.71875 37.46875 C 81.8125 37.621094 81.875 37.613281 82.027344 37.433594 C 82.28125 37.125 82.957031 37.148438 83.253906 37.476562 C 83.574219 37.828125 83.5625 38.625 83.226562 39.261719 C 82.84375 39.980469 81.59375 40.816406 80.589844 41.027344 C 78.660156 41.425781 76.863281 40.320312 76.460938 38.472656 C 76.242188 37.472656 76.492188 36.6875 77.183594 36.222656 C 78.078125 35.621094 79.25 35.890625 79.25 36.699219 C 79.25 36.898438 79.292969 36.929688 79.410156 36.8125 C 79.496094 36.722656 79.566406 36.304688 79.5625 35.886719 C 79.558594 35.308594 79.480469 35.035156 79.242188 34.785156 C 78.832031 34.347656 78.28125 34.21875 77.757812 34.433594 C 77.523438 34.53125 77.304688 34.582031 77.269531 34.546875 C 77.234375 34.507812 77.273438 34.226562 77.359375 33.917969 C 77.609375 33.015625 77.046875 31.898438 75.339844 29.917969 L 74.925781 29.4375 L 73.9375 30.664062 M 74.492188 32.65625 C 74.050781 33.53125 73.667969 35.140625 73.789062 35.609375 C 73.832031 35.777344 74.121094 36.40625 74.429688 37 L 74.988281 38.082031 L 75.28125 37.460938 C 75.441406 37.121094 75.738281 36.554688 75.933594 36.203125 C 76.207031 35.726562 76.277344 35.4375 76.214844 35.03125 C 76.109375 34.34375 75.457031 32.640625 75.136719 32.210938 L 74.886719 31.878906 L 74.492188 32.65625 M 74.75 33.578125 C 74.414062 34.546875 74.378906 35.257812 74.640625 35.804688 C 74.941406 36.445312 75.058594 36.457031 75.296875 35.882812 C 75.511719 35.359375 75.414062 34.050781 75.117188 33.480469 L 74.914062 33.097656 L 74.75 33.578125 M 93.464844 35.03125 C 92.773438 35.292969 91.875 36.167969 91.625 36.828125 C 91.386719 37.449219 91.363281 37.46875 90.925781 37.339844 C 90.449219 37.203125 89.355469 37.410156 89.355469 37.632812 C 89.355469 37.703125 89.464844 37.847656 89.597656 37.957031 C 90.25 38.5 90.421875 39.929688 89.945312 40.863281 C 89.453125 41.824219 88.328125 42.390625 87.328125 42.175781 C 85.914062 41.875 84.679688 39.246094 85.546875 38.378906 C 85.921875 38.003906 86.105469 38.011719 86.523438 38.402344 L 86.859375 38.71875 L 87.152344 38.070312 C 87.3125 37.71875 87.445312 37.324219 87.449219 37.195312 C 87.453125 36.949219 86.867188 36.328125 86.632812 36.328125 C 86.554688 36.328125 86.132812 36.6875 85.699219 37.125 C 84.980469 37.859375 84.90625 37.988281 84.847656 38.71875 C 84.722656 40.226562 85.886719 42.035156 87.273438 42.496094 C 87.90625 42.703125 89.28125 42.445312 89.417969 42.089844 C 89.46875 41.960938 89.597656 41.898438 89.730469 41.949219 C 89.855469 42 89.921875 41.980469 89.878906 41.910156 C 89.832031 41.839844 89.90625 41.691406 90.039062 41.582031 C 90.433594 41.253906 90.640625 40.578125 90.753906 39.257812 C 90.851562 38.085938 90.992188 37.648438 91.269531 37.648438 C 91.332031 37.648438 91.429688 37.777344 91.480469 37.9375 C 91.621094 38.382812 91.800781 38.289062 91.910156 37.714844 C 92.003906 37.210938 92.765625 36.179688 93.042969 36.179688 C 93.121094 36.179688 93.042969 36.378906 92.871094 36.621094 C 92.597656 37.003906 92.226562 37.9375 92.347656 37.9375 C 92.542969 37.9375 94 35.054688 93.867188 34.933594 C 93.84375 34.914062 93.660156 34.957031 93.464844 35.03125 M 64.746094 35.964844 C 64.746094 36.171875 64.859375 36.582031 64.996094 36.882812 L 65.25 37.425781 L 65.296875 36.808594 C 65.347656 36.1875 65.148438 35.59375 64.886719 35.59375 C 64.808594 35.59375 64.746094 35.761719 64.746094 35.964844 M 84.675781 36.144531 C 84.484375 36.835938 84.480469 37.164062 84.667969 37.28125 C 84.859375 37.398438 85.109375 36.734375 85.109375 36.097656 C 85.109375 35.433594 84.867188 35.457031 84.675781 36.144531 M 58.699219 38.964844 C 58.644531 39.167969 58.605469 39.628906 58.613281 39.992188 L 58.628906 40.648438 L 58.761719 39.84375 C 58.90625 38.960938 58.867188 38.367188 58.699219 38.964844 M 91.140625 39.273438 C 91.125 39.644531 91.039062 40.15625 90.949219 40.414062 C 90.746094 41 90.898438 41.210938 91.117188 40.644531 C 91.203125 40.414062 91.25 39.863281 91.222656 39.414062 C 91.171875 38.632812 91.167969 38.625 91.140625 39.273438 M 91.847656 40.503906 C 91.84375 40.664062 91.707031 41.085938 91.546875 41.4375 C 91.300781 41.980469 91.292969 42.046875 91.5 41.875 C 91.890625 41.554688 92.171875 40.753906 92 40.460938 C 91.867188 40.234375 91.855469 40.238281 91.847656 40.503906 M 57.714844 40.554688 C 57.714844 40.882812 58.113281 41.671875 58.40625 41.933594 C 58.648438 42.148438 58.625 42.046875 58.277344 41.359375 C 57.808594 40.429688 57.714844 40.296875 57.714844 40.554688 M 74.304688 41.527344 L 73.6875 42.332031 L 74.980469 42.296875 L 76.277344 42.261719 L 75.710938 41.617188 C 75.402344 41.265625 75.148438 40.917969 75.148438 40.847656 C 75.148438 40.5625 74.894531 40.769531 74.304688 41.527344 M 66.089844 42.269531 C 65.855469 42.777344 65.855469 42.773438 66.394531 42.769531 C 67.179688 42.765625 67.332031 42.570312 66.824219 42.207031 C 66.277344 41.816406 66.292969 41.816406 66.089844 42.269531 M 83.007812 42.210938 C 82.511719 42.582031 82.6875 42.769531 83.542969 42.769531 L 84.097656 42.773438 L 83.839844 42.335938 C 83.53125 41.816406 83.539062 41.816406 83.007812 42.210938 M 71.484375 43.078125 C 67.464844 43.234375 65.632812 43.425781 63.476562 43.925781 C 62.441406 44.164062 61.25 44.40625 60.828125 44.460938 C 60.40625 44.515625 60.058594 44.617188 60.058594 44.691406 C 60.058594 44.886719 60.285156 44.859375 62.050781 44.472656 C 63.765625 44.09375 66.4375 43.648438 66.886719 43.660156 C 67.039062 43.667969 65.910156 43.957031 64.378906 44.304688 C 60.851562 45.105469 60.351562 45.242188 60.351562 45.414062 C 60.351562 45.605469 60.441406 45.59375 60.90625 45.351562 C 61.597656 44.996094 66.605469 44.25 69.945312 44 C 73.34375 43.75 77.828125 43.785156 81.371094 44.09375 C 83.5 44.277344 88.230469 45.042969 89.074219 45.339844 C 89.796875 45.597656 89.839844 45.601562 89.722656 45.414062 C 89.589844 45.195312 88.40625 44.882812 86.101562 44.453125 C 84.054688 44.070312 82.867188 43.710938 84.226562 43.882812 C 85.125 43.996094 89.203125 44.671875 89.613281 44.773438 C 89.796875 44.820312 89.941406 44.789062 89.941406 44.699219 C 89.941406 44.613281 89.695312 44.503906 89.390625 44.457031 C 89.089844 44.40625 87.886719 44.175781 86.71875 43.9375 C 85.550781 43.703125 83.96875 43.445312 83.203125 43.363281 C 81.625 43.195312 75.996094 42.910156 75 42.945312 C 74.636719 42.957031 73.054688 43.015625 71.484375 43.078125 M 71.558594 44.660156 C 71.015625 44.746094 70.96875 44.789062 70.871094 45.335938 C 70.761719 45.941406 70.847656 46.992188 71.027344 47.285156 C 71.097656 47.398438 72.320312 47.453125 75.003906 47.46875 L 78.882812 47.488281 L 78.988281 46.707031 C 79.046875 46.273438 79.054688 45.652344 79.011719 45.324219 L 78.929688 44.722656 L 76.941406 44.625 C 74.664062 44.515625 72.410156 44.53125 71.558594 44.660156 M 68.847656 44.773438 C 67.320312 44.882812 64.867188 45.3125 64.671875 45.503906 C 64.199219 45.976562 64.285156 47.457031 64.808594 47.894531 C 64.953125 48.011719 65.597656 47.996094 67.242188 47.832031 C 68.46875 47.707031 69.761719 47.609375 70.113281 47.609375 C 70.828125 47.609375 70.84375 47.574219 70.519531 46.789062 C 70.296875 46.261719 70.304688 45.832031 70.542969 45.007812 C 70.648438 44.648438 70.648438 44.648438 68.847656 44.773438 M 74.179688 45.09375 C 73.230469 45.78125 73.144531 45.945312 73.523438 46.347656 C 73.699219 46.535156 74.101562 46.808594 74.414062 46.949219 C 74.976562 47.203125 74.988281 47.203125 75.613281 46.832031 C 76.773438 46.144531 76.847656 46.0625 76.605469 45.765625 C 76.34375 45.449219 75.152344 44.679688 74.921875 44.679688 C 74.828125 44.679688 74.492188 44.863281 74.179688 45.09375 M 79.324219 45.121094 C 79.566406 45.59375 79.566406 45.964844 79.320312 47.105469 L 79.222656 47.558594 L 81.535156 47.738281 C 82.808594 47.835938 84.128906 47.953125 84.46875 48 C 85.035156 48.078125 85.097656 48.050781 85.292969 47.664062 C 85.78125 46.703125 85.726562 45.566406 85.183594 45.359375 C 84.863281 45.234375 82.003906 44.867188 80.367188 44.738281 L 79.070312 44.636719 L 79.324219 45.121094 M 71.574219 45.203125 C 71.429688 45.578125 71.472656 46.851562 71.632812 46.949219 C 71.722656 47.003906 71.777344 46.65625 71.777344 46.003906 C 71.777344 44.957031 71.734375 44.785156 71.574219 45.203125 M 78.027344 45.320312 C 77.882812 45.703125 77.910156 46.84375 78.066406 46.941406 C 78.261719 47.0625 78.433594 45.742188 78.265625 45.375 C 78.140625 45.089844 78.121094 45.085938 78.027344 45.320312 M 66.363281 45.496094 C 65.769531 45.753906 65.628906 45.929688 65.628906 46.449219 C 65.625 47.058594 66.101562 47.367188 67.148438 47.433594 C 68.191406 47.5 68.832031 47.257812 69.234375 46.644531 C 69.539062 46.179688 69.328125 45.621094 68.765625 45.40625 C 68.210938 45.195312 66.945312 45.242188 66.363281 45.496094 M 74.457031 45.628906 C 74.058594 45.988281 74.054688 46.003906 74.332031 46.214844 C 74.699219 46.5 75.144531 46.496094 75.5625 46.199219 L 75.898438 45.964844 L 75.570312 45.613281 C 75.15625 45.171875 74.96875 45.175781 74.457031 45.628906 M 81.039062 45.445312 C 80.304688 45.796875 80.5 46.886719 81.367188 47.25 C 82.027344 47.523438 83.25 47.519531 83.792969 47.238281 C 84.683594 46.78125 84.449219 45.757812 83.382812 45.4375 C 82.671875 45.222656 81.488281 45.226562 81.039062 45.445312 M 63.484375 45.78125 C 63.027344 46.480469 63.507812 48.195312 64.164062 48.195312 C 64.515625 48.195312 64.519531 48.140625 64.207031 47.660156 C 63.90625 47.203125 63.875 45.972656 64.148438 45.640625 C 64.316406 45.441406 64.300781 45.410156 64.035156 45.410156 C 63.867188 45.410156 63.617188 45.578125 63.484375 45.78125 M 85.933594 45.726562 C 86.113281 46.226562 86.050781 47.085938 85.796875 47.589844 C 85.601562 47.984375 85.601562 48.035156 85.816406 48.121094 C 86.367188 48.328125 86.875 47.003906 86.628906 46.011719 C 86.53125 45.617188 86.410156 45.472656 86.15625 45.433594 C 85.851562 45.390625 85.828125 45.425781 85.933594 45.726562 M 62.636719 45.789062 C 62.476562 46.210938 62.546875 47.316406 62.769531 47.855469 C 63.070312 48.570312 63.21875 48.363281 62.992188 47.550781 C 62.890625 47.191406 62.835938 46.597656 62.863281 46.226562 C 62.917969 45.558594 62.808594 45.347656 62.636719 45.789062 M 66.394531 45.773438 C 65.410156 46.203125 65.972656 47.167969 67.203125 47.167969 C 68.199219 47.167969 69.167969 46.511719 68.871094 46.035156 C 68.582031 45.566406 67.207031 45.421875 66.394531 45.773438 M 81.640625 45.660156 C 80.78125 45.824219 80.886719 46.714844 81.800781 47.015625 C 82.085938 47.113281 82.46875 47.160156 82.652344 47.125 C 82.898438 47.078125 82.863281 47.054688 82.515625 47.042969 C 82.257812 47.03125 81.867188 46.863281 81.640625 46.671875 C 81.292969 46.375 81.261719 46.289062 81.429688 46.089844 C 81.734375 45.722656 82.574219 45.628906 83.144531 45.902344 C 83.726562 46.179688 83.757812 46.316406 83.320312 46.722656 C 82.921875 47.09375 83.195312 47.117188 83.652344 46.75 C 84.457031 46.097656 83.117188 45.371094 81.640625 45.660156 M 87.082031 46.558594 C 87.078125 47.269531 87 47.675781 86.8125 47.960938 C 86.566406 48.339844 86.5625 48.363281 86.804688 48.316406 C 87.316406 48.21875 87.664062 46.339844 87.269531 45.804688 C 87.113281 45.597656 87.085938 45.71875 87.082031 46.558594 M 66.695312 45.878906 C 66.230469 46.101562 66.171875 46.398438 66.523438 46.75 C 66.773438 46.996094 66.957031 47.042969 67.472656 46.984375 C 68.207031 46.902344 68.554688 46.671875 68.554688 46.265625 C 68.554688 45.777344 67.402344 45.535156 66.695312 45.878906 M 60.554688 47.46875 C 60.613281 47.820312 60.6875 48.140625 60.726562 48.175781 C 60.828125 48.277344 61.523438 47.582031 61.523438 47.378906 C 61.523438 47.28125 61.40625 47.167969 61.265625 47.128906 C 61.125 47.085938 60.886719 47.003906 60.730469 46.941406 C 60.472656 46.835938 60.460938 46.875 60.554688 47.46875 M 88.953125 47.070312 C 88.386719 47.238281 88.355469 47.453125 88.828125 48 L 89.179688 48.40625 L 89.347656 47.777344 C 89.441406 47.429688 89.5 47.097656 89.472656 47.039062 C 89.449219 46.980469 89.214844 46.992188 88.953125 47.070312 M 68.703125 48.34375 C 65.5625 48.667969 64.425781 48.816406 63.101562 49.082031 C 61.65625 49.375 60.9375 49.617188 60.9375 49.8125 C 60.9375 49.871094 61.332031 49.796875 61.8125 49.648438 C 63.070312 49.257812 68.804688 48.578125 68.53125 48.851562 C 68.488281 48.894531 67.371094 49.09375 66.050781 49.289062 C 63.273438 49.703125 61.363281 50.085938 61.164062 50.265625 C 60.957031 50.453125 61.230469 50.421875 62.660156 50.109375 C 63.363281 49.953125 64.601562 49.753906 65.40625 49.664062 C 66.210938 49.574219 67.429688 49.421875 68.117188 49.328125 C 70.070312 49.058594 79.496094 49.121094 82.542969 49.421875 C 85.320312 49.695312 86.46875 49.859375 87.796875 50.175781 C 88.84375 50.421875 88.914062 50.429688 88.914062 50.277344 C 88.914062 50.136719 86.042969 49.585938 82.984375 49.132812 L 80.640625 48.789062 L 82.492188 48.855469 C 84.976562 48.941406 87.972656 49.402344 88.804688 49.828125 C 88.960938 49.910156 89.0625 49.90625 89.0625 49.828125 C 89.0625 49.488281 86.5625 48.914062 83.46875 48.546875 C 81.203125 48.277344 70.738281 48.132812 68.703125 48.34375 M 55.648438 50.007812 C 53.953125 50.613281 52.753906 52.136719 52.507812 54.003906 C 52.382812 54.953125 52.796875 56.425781 53.496094 57.507812 C 54.203125 58.597656 55.277344 59.898438 55.433594 59.859375 C 55.753906 59.769531 55.628906 59.441406 54.84375 58.292969 C 54.386719 57.621094 53.863281 56.707031 53.683594 56.261719 C 53.320312 55.355469 53.109375 54.054688 53.328125 54.054688 C 53.40625 54.054688 53.46875 53.945312 53.46875 53.816406 C 53.46875 53.363281 54.242188 52.15625 54.769531 51.800781 C 55.699219 51.164062 57.75 51.03125 58.714844 51.546875 C 58.945312 51.671875 59.101562 51.621094 59.535156 51.277344 L 60.070312 50.851562 L 59.738281 50.542969 C 59.027344 49.878906 56.816406 49.589844 55.648438 50.007812 M 91.367188 50.015625 C 90.617188 50.230469 89.941406 50.609375 89.941406 50.816406 C 89.941406 50.886719 90.167969 51.113281 90.441406 51.324219 C 90.910156 51.679688 90.972656 51.691406 91.429688 51.503906 C 93.53125 50.648438 95.722656 51.527344 96.296875 53.460938 C 96.800781 55.15625 96.570312 56.097656 95.089844 58.355469 C 94.378906 59.445312 94.1875 59.914062 94.449219 59.914062 C 94.691406 59.914062 96.3125 57.757812 96.8125 56.769531 C 97.292969 55.824219 97.339844 55.632812 97.335938 54.492188 C 97.335938 53.53125 97.265625 53.089844 97.019531 52.5625 C 96.605469 51.65625 95.636719 50.625 94.839844 50.242188 C 94.023438 49.84375 92.335938 49.734375 91.367188 50.015625 M 56.398438 52.296875 C 56.140625 52.378906 56.335938 52.414062 57.054688 52.414062 C 57.777344 52.414062 57.972656 52.378906 57.714844 52.296875 C 57.511719 52.230469 57.21875 52.175781 57.054688 52.175781 C 56.894531 52.175781 56.597656 52.230469 56.398438 52.296875 M 92.542969 52.402344 C 92.808594 52.433594 93.203125 52.433594 93.421875 52.398438 C 93.644531 52.367188 93.429688 52.339844 92.945312 52.339844 C 92.460938 52.339844 92.28125 52.367188 92.542969 52.402344 M 70.222656 53.441406 C 70.265625 53.507812 70.566406 53.652344 70.898438 53.757812 C 71.886719 54.085938 71.777344 54.25 70.664062 54.113281 C 68.449219 53.84375 67.664062 54.042969 66.109375 55.28125 C 65.207031 55.996094 64.945312 56.421875 65.660156 56 C 66.722656 55.378906 66.664062 55.558594 65.402344 56.789062 C 62.875 59.265625 62.449219 59.90625 62.613281 61.003906 C 62.695312 61.546875 63.410156 62.703125 63.421875 62.308594 C 63.425781 62.214844 63.523438 62.105469 63.640625 62.058594 C 63.773438 62.007812 63.824219 62.046875 63.777344 62.167969 C 63.71875 62.324219 63.910156 62.320312 64.773438 62.152344 C 65.382812 62.03125 66.335938 61.96875 66.980469 62 C 67.933594 62.050781 68.179688 62.117188 68.496094 62.414062 C 68.984375 62.871094 69.242188 63.375 69.433594 64.253906 C 69.519531 64.644531 69.757812 65.316406 69.964844 65.742188 C 70.171875 66.171875 70.386719 66.6875 70.441406 66.890625 L 70.539062 67.257812 L 71.160156 66.632812 C 72.050781 65.730469 71.921875 66.238281 70.917969 67.566406 C 69.824219 69.011719 69.339844 70.101562 69.097656 71.644531 C 68.859375 73.183594 68.660156 72.972656 68.578125 71.089844 L 68.519531 69.742188 L 67.863281 70.550781 C 67.5 70.992188 67.171875 71.320312 67.128906 71.277344 C 67.085938 71.234375 67.402344 70.6875 67.835938 70.0625 C 68.660156 68.855469 68.742188 68.503906 68.496094 67.1875 C 68.421875 66.78125 68.332031 66.648438 68.179688 66.707031 C 68.0625 66.75 67.96875 66.726562 67.96875 66.65625 C 67.96875 66.320312 67.46875 66.0625 66.816406 66.0625 C 66.003906 66.0625 65.210938 65.609375 64.527344 64.75 C 64.070312 64.179688 63.410156 63.71875 63.050781 63.71875 C 62.933594 63.71875 62.84375 63.660156 62.84375 63.585938 C 62.84375 63.390625 62.203125 62.414062 62.074219 62.410156 C 62.011719 62.40625 61.960938 62.527344 61.960938 62.683594 C 61.960938 62.835938 61.917969 63.082031 61.863281 63.222656 C 61.773438 63.460938 61.757812 63.460938 61.65625 63.199219 C 61.578125 63 61.539062 63.109375 61.535156 63.558594 C 61.527344 64.007812 61.320312 64.617188 60.839844 65.609375 C 60.226562 66.867188 60.15625 67.121094 60.160156 68 C 60.167969 69.382812 60.570312 70.179688 62.261719 72.175781 C 62.414062 72.351562 62.714844 72.765625 62.929688 73.089844 C 63.324219 73.691406 63.574219 73.84375 63.574219 73.484375 C 63.574219 73.125 62.710938 71.566406 62.117188 70.851562 C 61.414062 70.003906 61.230469 69.417969 61.230469 68.003906 C 61.230469 66.847656 61.429688 66.585938 61.582031 67.542969 C 61.742188 68.542969 62.226562 69.28125 63.644531 70.675781 L 65.003906 72.007812 L 65.316406 71.554688 C 65.484375 71.304688 65.828125 70.90625 66.078125 70.667969 L 66.53125 70.238281 L 65.984375 71.285156 C 65.554688 72.113281 65.425781 72.546875 65.367188 73.371094 C 65.328125 73.945312 65.351562 74.414062 65.421875 74.410156 C 65.492188 74.40625 65.703125 74.160156 65.890625 73.859375 C 66.207031 73.359375 67.382812 72.3125 67.5 72.433594 C 67.527344 72.460938 67.320312 72.820312 67.039062 73.226562 C 66.757812 73.636719 66.421875 74.320312 66.289062 74.742188 C 66.15625 75.164062 65.941406 75.703125 65.8125 75.9375 C 65.597656 76.335938 65.597656 76.378906 65.859375 76.570312 C 66.589844 77.121094 67.410156 77.5 68.480469 77.789062 C 70.011719 78.207031 70.335938 78.410156 69.289062 78.292969 C 68.3125 78.183594 66.957031 77.832031 66.078125 77.460938 C 65.703125 77.300781 65.375 77.242188 65.300781 77.316406 C 65.230469 77.386719 65.160156 77.730469 65.140625 78.078125 C 65.117188 78.640625 65.160156 78.738281 65.550781 78.96875 C 66.164062 79.328125 68.035156 79.683594 69.390625 79.699219 C 70.414062 79.710938 70.480469 79.730469 70.019531 79.863281 C 69.277344 80.082031 66.265625 79.921875 65.589844 79.628906 L 65.039062 79.390625 L 65.039062 79.894531 C 65.039062 81.234375 65.808594 81.664062 68.210938 81.664062 C 69.027344 81.664062 69.667969 81.710938 69.636719 81.765625 C 69.5 81.988281 67.835938 82.207031 66.765625 82.144531 C 66.136719 82.109375 65.625 82.105469 65.625 82.140625 C 65.625 82.324219 66.566406 83.519531 67.035156 83.933594 C 68.1875 84.945312 69.296875 85.183594 70.441406 84.664062 C 71.390625 84.230469 73.921875 82.496094 74.1875 82.097656 C 74.320312 81.890625 74.414062 81.425781 74.414062 80.949219 C 74.414062 80.242188 74.347656 80.070312 73.828125 79.410156 C 73.105469 78.496094 71.988281 77.597656 70.984375 77.125 C 69.324219 76.339844 68.703125 75.476562 68.703125 73.976562 L 68.703125 73.316406 L 69.128906 74.046875 C 69.851562 75.300781 70.75 75.941406 70.75 75.203125 C 70.75 75.082031 70.972656 74.894531 71.238281 74.78125 C 71.667969 74.601562 71.882812 74.613281 73.027344 74.863281 C 74.578125 75.203125 75.253906 75.214844 76.335938 74.933594 C 76.78125 74.820312 77.476562 74.679688 77.878906 74.625 C 78.566406 74.535156 78.636719 74.558594 79.09375 75.011719 L 79.578125 75.496094 L 80.109375 74.917969 C 80.402344 74.601562 80.75 74.175781 80.886719 73.976562 L 81.136719 73.609375 L 81.144531 74.195312 C 81.160156 75.648438 80.589844 76.402344 78.851562 77.222656 C 77.839844 77.703125 76.316406 79.054688 75.753906 79.980469 C 75.28125 80.753906 75.332031 81.605469 75.886719 82.234375 C 76.410156 82.832031 78.339844 84.101562 79.519531 84.625 C 80.167969 84.910156 80.488281 84.972656 80.992188 84.902344 C 82.074219 84.753906 83.5625 83.621094 84.136719 82.503906 L 84.34375 82.105469 L 82.710938 82.09375 C 81.640625 82.085938 80.910156 82.011719 80.59375 81.875 C 80.128906 81.675781 80.171875 81.667969 81.421875 81.714844 C 82.878906 81.773438 84.148438 81.496094 84.566406 81.035156 C 84.703125 80.886719 84.855469 80.445312 84.910156 80.054688 C 85 79.394531 84.988281 79.355469 84.726562 79.464844 C 83.582031 79.949219 80.246094 80.195312 79.6875 79.835938 C 79.535156 79.734375 79.855469 79.691406 80.710938 79.6875 C 82.078125 79.683594 83.65625 79.398438 84.363281 79.035156 C 84.777344 78.820312 84.8125 78.738281 84.8125 78.066406 C 84.8125 77.609375 84.746094 77.308594 84.628906 77.261719 C 84.523438 77.222656 84.035156 77.355469 83.539062 77.558594 C 82.792969 77.859375 80.535156 78.367188 79.9375 78.367188 C 79.5625 78.367188 80.046875 78.183594 81.285156 77.851562 C 82.804688 77.445312 83.394531 77.179688 83.972656 76.640625 C 84.328125 76.308594 84.351562 76.230469 84.183594 75.960938 C 84.078125 75.796875 83.871094 75.328125 83.71875 74.925781 C 83.40625 74.074219 83.15625 73.648438 82.578125 72.96875 C 82.347656 72.699219 82.195312 72.445312 82.238281 72.402344 C 82.375 72.265625 83.339844 73.089844 83.964844 73.875 L 84.5625 74.632812 L 84.484375 73.359375 C 84.417969 72.238281 84.34375 71.964844 83.855469 71.089844 C 83.332031 70.140625 83.324219 70.109375 83.710938 70.460938 C 83.929688 70.660156 84.300781 71.097656 84.53125 71.429688 L 84.953125 72.035156 L 86.480469 70.550781 C 87.820312 69.25 88.035156 68.96875 88.242188 68.273438 C 88.371094 67.835938 88.476562 67.390625 88.476562 67.28125 C 88.476562 67.175781 88.550781 67.089844 88.644531 67.089844 C 88.761719 67.089844 88.785156 67.394531 88.726562 68.121094 C 88.625 69.308594 88.210938 70.300781 87.328125 71.46875 C 86.785156 72.183594 86.15625 73.605469 86.3125 73.765625 C 86.347656 73.800781 86.703125 73.425781 87.097656 72.9375 C 89.359375 70.132812 89.6875 69.503906 89.710938 67.894531 C 89.71875 67.144531 89.632812 66.832031 89.105469 65.765625 C 88.507812 64.542969 88.136719 63.375 88.296875 63.214844 C 88.34375 63.171875 88.304688 63.132812 88.210938 63.132812 C 88.121094 63.132812 87.988281 62.921875 87.914062 62.660156 L 87.785156 62.183594 L 87.589844 62.621094 C 87.484375 62.863281 87.300781 63.175781 87.183594 63.3125 C 87.066406 63.457031 87.011719 63.707031 87.058594 63.898438 C 87.140625 64.21875 87.136719 64.222656 86.933594 63.953125 C 86.742188 63.695312 86.683594 63.6875 86.332031 63.878906 C 86.117188 63.992188 85.703125 64.371094 85.414062 64.722656 C 84.722656 65.554688 83.847656 66.066406 83.117188 66.058594 L 82.542969 66.054688 L 83.320312 65.785156 C 84.386719 65.417969 85.300781 64.492188 85.613281 63.464844 C 85.695312 63.1875 85.660156 63.136719 85.375 63.140625 C 85.144531 63.144531 84.898438 63.339844 84.625 63.734375 C 84.164062 64.402344 83.609375 64.683594 82.554688 64.792969 C 82.027344 64.847656 81.757812 64.960938 81.566406 65.210938 C 81.21875 65.65625 80.960938 66.496094 81.035156 66.949219 C 81.089844 67.285156 81.109375 67.269531 81.335938 66.757812 C 81.480469 66.429688 81.730469 66.152344 81.960938 66.0625 C 82.46875 65.871094 82.46875 65.867188 82.277344 66.265625 C 82.1875 66.460938 82.035156 66.585938 81.9375 66.546875 C 81.753906 66.480469 81.523438 67.113281 81.351562 68.15625 C 81.269531 68.644531 81.347656 68.855469 82.011719 69.941406 C 82.425781 70.617188 82.761719 71.226562 82.757812 71.292969 C 82.757812 71.355469 82.429688 71.046875 82.03125 70.605469 L 81.308594 69.800781 L 81.304688 71.144531 C 81.300781 71.886719 81.238281 72.527344 81.167969 72.574219 C 81.09375 72.617188 80.960938 72.222656 80.867188 71.695312 C 80.578125 70.023438 80.222656 69.316406 78.40625 66.773438 C 77.902344 66.070312 78.011719 65.988281 78.6875 66.566406 C 79.359375 67.140625 79.539062 67.203125 79.539062 66.867188 C 79.539062 66.746094 79.703125 66.332031 79.90625 65.949219 C 80.105469 65.566406 80.378906 64.808594 80.511719 64.261719 C 80.691406 63.539062 80.902344 63.105469 81.292969 62.667969 C 81.777344 62.121094 81.902344 62.058594 82.667969 61.996094 C 83.132812 61.957031 83.988281 62 84.566406 62.089844 C 86.804688 62.441406 86.613281 62.453125 86.96875 61.929688 C 87.429688 61.246094 87.539062 60.363281 87.238281 59.78125 C 86.808594 58.945312 84.960938 56.988281 83.960938 56.304688 C 83 55.652344 83.164062 55.558594 84.28125 56.125 C 84.59375 56.28125 84.878906 56.382812 84.910156 56.347656 C 85.035156 56.226562 83.214844 54.777344 82.378906 54.332031 C 81.546875 53.890625 81.476562 53.878906 80.234375 53.96875 C 79.527344 54.019531 78.851562 54.101562 78.734375 54.148438 C 78.246094 54.335938 78.558594 53.941406 79.136719 53.640625 L 79.761719 53.3125 L 79.027344 53.398438 C 77.480469 53.578125 75.910156 54.730469 75.605469 55.910156 C 75.398438 56.695312 75.25 58.257812 75.394531 58.082031 C 75.457031 58 75.644531 57.851562 75.804688 57.753906 C 77.378906 56.785156 77.890625 56.515625 78.28125 56.449219 C 78.683594 56.378906 78.648438 56.421875 77.984375 56.816406 C 76.324219 57.800781 75.4375 59.367188 75.4375 61.316406 C 75.4375 62.621094 75.144531 65.1875 74.996094 65.1875 C 74.824219 65.1875 74.691406 64.355469 74.503906 62.035156 C 74.238281 58.84375 73.746094 57.917969 71.660156 56.722656 C 71.019531 56.351562 70.929688 56.261719 71.265625 56.332031 C 71.960938 56.476562 73.511719 57.261719 74.085938 57.765625 L 74.609375 58.226562 L 74.507812 57.144531 C 74.332031 55.257812 73.371094 54.035156 71.660156 53.519531 C 70.925781 53.296875 70.109375 53.253906 70.222656 53.441406 M 69.382812 58.976562 C 68.625 60.183594 68.597656 60.480469 69.121094 61.601562 C 69.363281 62.121094 69.585938 62.546875 69.609375 62.546875 C 69.632812 62.546875 69.652344 62.070312 69.65625 61.484375 C 69.65625 60.589844 69.71875 60.3125 70.066406 59.722656 C 70.480469 59.015625 70.492188 58.632812 70.101562 58.308594 C 69.945312 58.175781 69.796875 58.3125 69.382812 58.976562 M 79.691406 58.4375 C 79.46875 58.859375 79.503906 59.09375 79.90625 59.851562 C 80.195312 60.394531 80.273438 60.761719 80.28125 61.582031 L 80.289062 62.621094 L 80.710938 61.816406 C 81.308594 60.691406 81.28125 60.15625 80.570312 59.054688 C 80.25 58.558594 79.953125 58.15625 79.914062 58.15625 C 79.875 58.15625 79.777344 58.28125 79.691406 58.4375 M 67.542969 60.210938 C 67.53125 60.71875 67.515625 60.730469 67.007812 60.671875 C 66.433594 60.605469 65.457031 60.929688 64.890625 61.378906 L 64.527344 61.671875 L 65.1875 61.4375 C 66.003906 61.148438 67.480469 61.25 68.285156 61.648438 C 68.960938 61.980469 69 61.871094 68.40625 61.304688 C 68.167969 61.070312 67.964844 60.8125 67.960938 60.726562 C 67.957031 60.640625 67.863281 60.375 67.753906 60.132812 L 67.554688 59.691406 L 67.542969 60.210938 M 82.207031 60.105469 C 82.109375 60.332031 82.03125 60.566406 82.03125 60.625 C 82.03125 60.683594 81.800781 60.957031 81.519531 61.230469 C 80.839844 61.886719 80.871094 62 81.625 61.636719 C 82.300781 61.3125 84.269531 61.191406 84.960938 61.433594 L 85.328125 61.558594 L 84.960938 61.273438 C 84.472656 60.890625 83.726562 60.644531 83.042969 60.644531 C 82.527344 60.644531 82.484375 60.613281 82.4375 60.167969 L 82.382812 59.691406 L 82.207031 60.105469 M 71.335938 62.683594 C 70.976562 62.816406 70.578125 62.964844 70.460938 63.007812 C 70.269531 63.082031 70.273438 63.128906 70.488281 63.375 C 70.625 63.527344 70.78125 63.9375 70.839844 64.28125 L 70.9375 64.90625 L 71.183594 64.179688 C 71.320312 63.78125 71.609375 63.214844 71.832031 62.925781 C 72.277344 62.34375 72.269531 62.339844 71.335938 62.683594 M 78.058594 62.914062 C 78.328125 63.226562 78.652344 63.714844 78.773438 64.003906 L 78.992188 64.527344 L 79.1875 63.792969 C 79.292969 63.390625 79.382812 63.050781 79.386719 63.039062 C 79.390625 63.027344 79.113281 62.917969 78.773438 62.796875 C 78.429688 62.679688 78.015625 62.527344 77.855469 62.464844 C 77.636719 62.375 77.6875 62.492188 78.058594 62.914062 M 66.070312 62.761719 C 65.511719 63.4375 67.128906 64.570312 67.910156 64.046875 C 68.171875 63.871094 68.4375 63.273438 68.351562 63.050781 C 68.246094 62.777344 67.875 62.78125 67.769531 63.0625 C 67.632812 63.417969 67.097656 63.324219 66.945312 62.914062 C 66.789062 62.507812 66.347656 62.429688 66.070312 62.761719 M 82.992188 62.921875 C 82.679688 63.398438 81.933594 63.390625 82 62.914062 C 82.039062 62.625 82.035156 62.625 81.816406 62.90625 C 81.128906 63.777344 82.234375 64.515625 83.355469 63.9375 C 83.839844 63.6875 84.058594 63.09375 83.789062 62.765625 C 83.523438 62.449219 83.269531 62.5 82.992188 62.921875 M 64.347656 63.242188 C 64.214844 63.289062 64.25 63.46875 64.472656 63.914062 C 65.074219 65.113281 65.804688 65.628906 67.304688 65.90625 C 67.78125 65.992188 68.1875 66.0625 68.210938 66.0625 C 68.234375 66.0625 68.378906 66.308594 68.53125 66.605469 C 68.789062 67.105469 68.816406 67.121094 68.910156 66.828125 C 69.019531 66.484375 68.597656 65.371094 68.25 65.09375 C 68.136719 65.003906 67.675781 64.882812 67.226562 64.832031 C 66.269531 64.714844 65.558594 64.324219 65.214844 63.726562 C 64.96875 63.292969 64.675781 63.132812 64.347656 63.242188 M 44.019531 112.089844 C 43.980469 112.195312 43.933594 112.9375 43.910156 113.746094 L 43.871094 115.210938 L 42.082031 115.25 L 40.292969 115.292969 L 40.25 113.714844 L 40.210938 112.132812 L 38.132812 112.046875 L 38.042969 116.113281 C 37.976562 119.109375 37.996094 120.230469 38.125 120.382812 C 38.320312 120.621094 39.75 120.5625 40.011719 120.300781 C 40.09375 120.21875 40.175781 119.53125 40.1875 118.777344 L 40.210938 117.40625 L 41.75 117.335938 C 44.109375 117.222656 43.945312 117.109375 43.945312 118.820312 C 43.945312 120.226562 43.957031 120.273438 44.3125 120.4375 C 44.566406 120.554688 44.898438 120.5625 45.375 120.472656 L 46.070312 120.335938 L 46.070312 111.988281 L 45.078125 111.945312 C 44.367188 111.914062 44.066406 111.953125 44.019531 112.089844 M 48.457031 112.011719 C 48.050781 112.121094 48.003906 112.5625 48.109375 115.273438 C 48.199219 117.605469 48.246094 117.917969 48.578125 118.617188 C 49.199219 119.90625 50.375 120.582031 52 120.582031 C 53.125 120.582031 53.777344 120.347656 54.546875 119.671875 C 55.632812 118.722656 55.945312 117.496094 55.953125 114.160156 C 55.957031 112.699219 55.914062 112.332031 55.71875 112.136719 C 55.585938 112.003906 55.382812 111.933594 55.265625 111.980469 C 55.148438 112.023438 54.730469 112.0625 54.332031 112.0625 L 53.613281 112.0625 L 53.613281 114.554688 C 53.613281 117.242188 53.496094 117.824219 52.863281 118.265625 C 52.675781 118.398438 52.253906 118.507812 51.925781 118.507812 C 51.433594 118.507812 51.238281 118.414062 50.820312 117.984375 L 50.316406 117.464844 L 50.269531 114.761719 L 50.222656 112.0625 L 49.757812 112.058594 C 49.5 112.058594 49.160156 112.03125 49 112 C 48.835938 111.96875 48.59375 111.972656 48.457031 112.011719 M 58.152344 112.050781 C 57.964844 112.164062 57.9375 112.757812 57.964844 116.246094 C 57.988281 119.378906 58.039062 120.339844 58.183594 120.433594 C 58.402344 120.570312 62.894531 120.597656 63.398438 120.460938 C 63.707031 120.378906 63.730469 120.304688 63.691406 119.476562 L 63.648438 118.578125 L 61.925781 118.539062 L 60.203125 118.496094 L 60.203125 115.355469 C 60.203125 112.402344 60.1875 112.207031 59.921875 112.066406 C 59.578125 111.882812 58.457031 111.875 58.152344 112.050781 M 87.121094 112.015625 C 86.886719 112.078125 86.867188 112.398438 86.867188 116.144531 C 86.867188 119.105469 86.914062 120.253906 87.039062 120.382812 C 87.226562 120.566406 91.75 120.636719 92.394531 120.464844 C 92.679688 120.386719 92.726562 120.277344 92.726562 119.671875 C 92.726562 118.484375 92.761719 118.507812 90.878906 118.507812 L 89.210938 118.507812 L 89.210938 115.386719 C 89.210938 113.15625 89.160156 112.214844 89.03125 112.089844 C 88.863281 111.921875 87.660156 111.875 87.121094 112.015625 M 106.347656 112.085938 C 105.207031 112.394531 103.878906 113.699219 103.570312 114.8125 C 103.347656 115.609375 103.382812 117.039062 103.644531 117.804688 C 103.976562 118.773438 104.75 119.59375 105.832031 120.128906 C 106.632812 120.519531 106.933594 120.589844 107.871094 120.589844 C 108.867188 120.589844 109.066406 120.535156 110.023438 120.023438 C 111.515625 119.21875 111.570312 119.070312 110.671875 118.273438 C 109.851562 117.542969 109.722656 117.507812 109.355469 117.914062 C 108.980469 118.328125 108.195312 118.546875 107.507812 118.429688 C 106.71875 118.296875 105.839844 117.460938 105.703125 116.714844 C 105.316406 114.605469 107.46875 113.269531 109.273438 114.496094 C 109.554688 114.6875 109.851562 114.839844 109.933594 114.835938 C 110.015625 114.835938 110.378906 114.570312 110.742188 114.253906 C 111.292969 113.769531 111.375 113.632812 111.242188 113.417969 C 110.972656 112.984375 109.886719 112.226562 109.308594 112.066406 C 108.648438 111.882812 107.050781 111.890625 106.347656 112.085938 M 118.40625 112.050781 C 118.050781 112.109375 117.679688 112.285156 117.527344 112.46875 C 117.378906 112.640625 116.765625 113.375 116.164062 114.101562 C 115.558594 114.824219 115.015625 115.417969 114.957031 115.421875 C 114.902344 115.425781 114.835938 114.6875 114.8125 113.78125 L 114.769531 112.132812 L 112.609375 112.132812 L 112.636719 116.230469 C 112.65625 119.222656 112.710938 120.359375 112.835938 120.441406 C 113.046875 120.574219 114.050781 120.589844 114.515625 120.464844 C 114.824219 120.382812 114.84375 120.296875 114.84375 119.128906 C 114.84375 118.109375 114.890625 117.84375 115.101562 117.683594 C 115.652344 117.265625 115.933594 117.4375 117.050781 118.871094 C 117.644531 119.636719 118.261719 120.304688 118.417969 120.355469 C 118.902344 120.507812 120.550781 120.476562 120.71875 120.308594 C 120.878906 120.148438 120.378906 119.46875 118.238281 116.945312 C 117.425781 115.992188 117.335938 115.824219 117.503906 115.605469 C 117.929688 115.058594 120.179688 112.570312 120.292969 112.523438 C 120.496094 112.441406 120.421875 112.097656 120.179688 112.003906 C 119.902344 111.898438 119.242188 111.914062 118.40625 112.050781 M 29.648438 112.261719 C 29.605469 112.375 29.59375 112.785156 29.617188 113.179688 L 29.664062 113.890625 L 32.007812 114.039062 L 32.078125 117.261719 L 32.152344 120.484375 L 33.019531 120.453125 C 33.496094 120.4375 33.976562 120.386719 34.082031 120.347656 C 34.234375 120.289062 34.277344 119.605469 34.277344 117.117188 L 34.277344 113.964844 L 35.347656 113.964844 C 36.574219 113.964844 36.765625 113.84375 36.765625 113.070312 C 36.765625 112.003906 36.964844 112.0625 33.160156 112.0625 C 30.378906 112.0625 29.710938 112.097656 29.648438 112.261719 M 65.074219 116.199219 L 65.113281 120.335938 L 66.175781 120.378906 L 67.234375 120.421875 L 67.234375 112.0625 L 65.035156 112.0625 L 65.074219 116.199219 M 69.382812 112.957031 C 69.226562 114.433594 69.269531 119.960938 69.4375 120.273438 C 69.582031 120.539062 69.773438 120.554688 72.574219 120.554688 C 74.21875 120.554688 75.667969 120.515625 75.792969 120.46875 C 75.972656 120.398438 76.023438 120.160156 76.023438 119.441406 L 76.023438 118.507812 L 73.839844 118.507812 C 71.769531 118.507812 71.644531 118.488281 71.554688 118.210938 C 71.503906 118.046875 71.503906 117.71875 71.558594 117.480469 L 71.652344 117.050781 L 73.4375 117.007812 L 75.21875 116.96875 L 75.265625 116.207031 C 75.324219 115.183594 75.101562 115.066406 73.324219 115.183594 C 72.59375 115.230469 71.90625 115.21875 71.800781 115.152344 C 71.6875 115.082031 71.628906 114.832031 71.65625 114.535156 L 71.703125 114.039062 L 75.804688 113.890625 L 75.804688 112.132812 L 69.476562 112.054688 L 69.382812 112.957031 M 78.039062 112.148438 C 77.980469 112.207031 77.929688 114.082031 77.929688 116.316406 C 77.929688 119.886719 77.957031 120.390625 78.160156 120.46875 C 78.652344 120.65625 82.851562 120.558594 83.566406 120.34375 C 85.542969 119.75 86.117188 117.65625 84.652344 116.402344 L 84.058594 115.890625 L 84.414062 115.660156 C 84.859375 115.367188 85.109375 114.835938 85.109375 114.164062 C 85.109375 113.496094 84.78125 112.953125 84.105469 112.496094 C 83.589844 112.148438 83.464844 112.132812 80.859375 112.085938 C 79.367188 112.058594 78.097656 112.085938 78.039062 112.148438 M 96.546875 112.261719 C 96.207031 112.671875 93.164062 119.847656 93.164062 120.238281 C 93.164062 120.421875 93.6875 120.550781 94.410156 120.550781 C 95.390625 120.550781 95.585938 120.4375 95.960938 119.628906 L 96.3125 118.871094 L 97.859375 118.832031 L 99.402344 118.789062 L 99.671875 119.539062 C 99.855469 120.054688 100.046875 120.328125 100.296875 120.421875 C 100.761719 120.597656 101.964844 120.589844 102.246094 120.410156 C 102.367188 120.332031 102.394531 120.265625 102.304688 120.265625 C 102.214844 120.265625 102.074219 119.984375 101.992188 119.640625 L 101.84375 119.019531 L 101.824219 119.523438 C 101.8125 119.808594 101.753906 119.96875 101.683594 119.890625 C 101.476562 119.652344 101.203125 118.507812 101.308594 118.332031 C 101.367188 118.238281 101.347656 118.207031 101.261719 118.261719 C 101.117188 118.347656 100.632812 117.3125 100.632812 116.917969 C 100.632812 116.816406 100.570312 116.773438 100.488281 116.820312 C 100.402344 116.875 100.339844 116.738281 100.339844 116.5 C 100.335938 116.167969 100.308594 116.132812 100.179688 116.308594 C 100.054688 116.484375 100.039062 116.457031 100.097656 116.183594 C 100.140625 115.996094 100.132812 115.730469 100.082031 115.597656 C 100.007812 115.402344 99.96875 115.429688 99.886719 115.722656 C 99.789062 116.082031 99.785156 116.082031 99.769531 115.75 C 99.761719 115.566406 99.691406 115.453125 99.609375 115.503906 C 99.523438 115.558594 99.460938 115.386719 99.460938 115.085938 C 99.460938 114.804688 99.414062 114.546875 99.351562 114.515625 C 99.292969 114.480469 99.324219 114.472656 99.425781 114.496094 C 99.542969 114.523438 99.609375 114.378906 99.609375 114.097656 C 99.609375 113.855469 99.667969 113.691406 99.738281 113.734375 C 99.808594 113.777344 99.714844 113.4375 99.527344 112.972656 L 99.1875 112.132812 L 97.957031 112.089844 C 97.019531 112.058594 96.683594 112.101562 96.546875 112.261719 M 88.964844 114.476562 C 88.964844 115.042969 88.992188 115.253906 89.023438 114.949219 C 89.054688 114.644531 89.054688 114.183594 89.023438 113.925781 C 88.988281 113.664062 88.964844 113.914062 88.964844 114.476562 M 80.183594 114.171875 C 80.140625 114.285156 80.125 114.566406 80.152344 114.792969 C 80.199219 115.207031 80.210938 115.210938 81.328125 115.253906 C 82.390625 115.292969 82.46875 115.273438 82.695312 114.933594 C 82.878906 114.648438 82.894531 114.503906 82.769531 114.269531 C 82.625 114 82.46875 113.964844 81.433594 113.964844 C 80.558594 113.964844 80.242188 114.015625 80.183594 114.171875 M 97.292969 115.613281 C 96.71875 117.164062 96.679688 117.039062 97.769531 117.039062 C 98.300781 117.039062 98.730469 116.976562 98.730469 116.898438 C 98.730469 116.667969 97.800781 114.84375 97.683594 114.84375 C 97.625 114.84375 97.453125 115.191406 97.292969 115.613281 M 80.15625 117.808594 L 80.199219 118.578125 L 81.078125 118.625 C 82.421875 118.695312 82.859375 118.570312 83.03125 118.078125 C 83.144531 117.757812 83.125 117.582031 82.960938 117.347656 C 82.769531 117.074219 82.601562 117.039062 81.429688 117.039062 L 80.113281 117.039062 L 80.15625 117.808594 "/>
<path style=" stroke:none;fill-rule:evenodd;fill:rgb(10.196079%,9.411765%,8.627451%);fill-opacity:1;" d="M 73.589844 29.925781 C 72.222656 31.640625 71.777344 32.4375 71.777344 33.171875 C 71.777344 33.640625 71.738281 33.691406 71.375 33.695312 C 70.359375 33.699219 69.726562 34.53125 69.726562 35.859375 C 69.726562 36.714844 69.945312 37.246094 70.511719 37.773438 C 71.019531 38.25 71.308594 38.097656 71.367188 37.324219 C 71.40625 36.761719 71.453125 36.6875 71.804688 36.648438 C 72.367188 36.582031 72.804688 37.066406 72.800781 37.757812 C 72.796875 38.675781 72.675781 38.753906 71.589844 38.554688 C 71.070312 38.457031 70.199219 38.378906 69.65625 38.378906 C 68.84375 38.378906 68.683594 38.339844 68.753906 38.160156 C 68.957031 37.625 69.007812 36.488281 68.855469 35.914062 C 68.605469 34.996094 68.238281 34.6875 67.441406 34.734375 C 66.804688 34.773438 66.765625 34.753906 66.15625 33.976562 C 65.429688 33.054688 64.53125 32.226562 64.25 32.226562 C 63.953125 32.226562 63.480469 33.636719 63.210938 35.320312 C 63.140625 35.765625 63.058594 35.867188 62.691406 35.941406 C 62.382812 36.003906 62.183594 36.171875 62.015625 36.527344 C 61.710938 37.164062 61.828125 37.8125 62.402344 38.71875 C 62.886719 39.484375 63.277344 39.597656 63.636719 39.082031 C 63.804688 38.84375 63.90625 38.800781 64.027344 38.917969 C 64.332031 39.226562 64.109375 39.617188 63.574219 39.703125 C 62.917969 39.8125 62.464844 40.058594 61.78125 40.671875 C 61.476562 40.941406 61.171875 41.164062 61.101562 41.164062 C 60.855469 41.164062 60.570312 40.207031 60.570312 39.386719 C 60.570312 38.726562 60.648438 38.453125 60.96875 38.003906 C 61.277344 37.570312 61.328125 37.398438 61.199219 37.242188 C 60.941406 36.933594 60.078125 36.621094 59.472656 36.621094 C 58.996094 36.621094 58.898438 36.558594 58.738281 36.175781 C 58.339844 35.21875 56.742188 34.199219 55.175781 33.90625 C 54.515625 33.78125 54.503906 33.878906 55.078125 34.9375 C 55.320312 35.386719 55.863281 36.589844 56.285156 37.613281 C 56.929688 39.1875 57.050781 39.628906 57.058594 40.453125 C 57.070312 41.25 57.144531 41.535156 57.460938 42.015625 C 57.675781 42.339844 57.980469 42.644531 58.140625 42.695312 C 58.496094 42.808594 59.179688 44.195312 59.179688 44.800781 C 59.179688 45.21875 59.128906 45.253906 57.902344 45.652344 C 57.199219 45.882812 56.261719 46.292969 55.816406 46.566406 C 53.835938 47.789062 53.425781 47.964844 52.550781 47.96875 C 52.058594 47.972656 51.726562 48.035156 51.753906 48.121094 C 51.820312 48.339844 52.859375 48.816406 53.675781 49 L 54.398438 49.164062 L 53.878906 49.484375 C 53.09375 49.96875 52.023438 51.1875 51.628906 52.046875 C 50.992188 53.4375 50.917969 55.238281 51.421875 57 C 51.613281 57.675781 51.609375 57.679688 51.089844 58.320312 C 50 59.65625 48.773438 62.554688 48.785156 63.765625 L 48.789062 64.234375 L 49.21875 63.71875 L 49.652344 63.207031 L 49.351562 64.304688 C 48.835938 66.1875 47.953125 67.550781 46.582031 68.578125 C 46.300781 68.789062 46.113281 69.007812 46.164062 69.058594 C 46.277344 69.179688 47.957031 68.753906 48.515625 68.464844 C 48.742188 68.347656 48.925781 68.296875 48.925781 68.351562 C 48.925781 68.40625 48.632812 69.320312 48.269531 70.378906 C 47.6875 72.101562 47.386719 73.449219 47.097656 75.609375 C 46.964844 76.617188 47.242188 76.617188 47.730469 75.609375 C 48.230469 74.582031 49.40625 72.792969 49.839844 72.414062 C 50.109375 72.175781 50.101562 72.21875 49.769531 72.804688 C 49.242188 73.730469 48.714844 75.289062 48.414062 76.828125 C 48.214844 77.839844 48.175781 78.578125 48.234375 80.050781 C 48.324219 82.378906 48.640625 83.640625 50.1875 87.855469 C 50.3125 88.195312 50.464844 88.476562 50.527344 88.476562 C 50.589844 88.476562 50.683594 87.703125 50.734375 86.753906 C 50.835938 84.84375 50.945312 84.191406 51.140625 84.3125 C 51.210938 84.355469 51.269531 84.675781 51.269531 85.023438 C 51.269531 85.800781 51.71875 88.40625 52.140625 90.085938 C 52.808594 92.753906 53.6875 94.347656 55.464844 96.113281 C 56.132812 96.777344 56.722656 97.28125 56.773438 97.230469 C 56.824219 97.179688 56.667969 96.71875 56.417969 96.210938 C 55.992188 95.335938 55.515625 93.804688 55.519531 93.316406 C 55.519531 93.191406 55.832031 93.632812 56.214844 94.296875 C 57.285156 96.160156 58.058594 97.132812 59.824219 98.84375 C 61.859375 100.8125 63.304688 101.730469 63.054688 100.890625 C 62.992188 100.671875 63.347656 100.941406 64.109375 101.6875 C 65.4375 102.988281 67.871094 104.714844 67.9375 104.402344 C 67.960938 104.292969 67.550781 103.515625 67.023438 102.675781 C 66.496094 101.835938 66.066406 101.089844 66.066406 101.023438 C 66.0625 100.554688 71.277344 105.726562 72.222656 107.128906 C 72.582031 107.660156 72.933594 108.097656 73.007812 108.101562 C 73.078125 108.101562 73.09375 107.730469 73.039062 107.261719 L 72.9375 106.421875 L 73.382812 107.117188 C 73.992188 108.082031 74.332031 108.777344 74.625 109.679688 C 74.765625 110.105469 74.933594 110.417969 75.003906 110.375 C 75.070312 110.332031 75.226562 109.953125 75.351562 109.53125 C 75.554688 108.835938 76.875 106.414062 76.988281 106.527344 C 77.011719 106.554688 76.96875 106.867188 76.890625 107.21875 C 76.589844 108.546875 76.78125 108.546875 77.664062 107.226562 C 78.167969 106.472656 79.179688 105.3125 80.226562 104.28125 C 82.410156 102.136719 83.714844 100.929688 83.839844 100.929688 C 83.984375 100.929688 83.316406 102.175781 82.625 103.199219 C 82.042969 104.058594 81.902344 104.445312 82.160156 104.445312 C 82.519531 104.445312 85.007812 102.601562 85.882812 101.6875 C 86.433594 101.113281 86.839844 100.777344 86.789062 100.933594 C 86.347656 102.324219 91.292969 98.160156 92.882812 95.800781 C 93.234375 95.277344 93.738281 94.453125 94 93.96875 C 94.261719 93.484375 94.476562 93.167969 94.480469 93.265625 C 94.484375 93.609375 93.710938 95.882812 93.367188 96.53125 C 92.847656 97.507812 93.195312 97.445312 94.289062 96.367188 C 95.527344 95.148438 96.734375 93.328125 97.261719 91.878906 C 97.773438 90.484375 98.535156 86.824219 98.679688 85.109375 L 98.78125 83.863281 L 98.96875 84.667969 C 99.074219 85.109375 99.195312 86.128906 99.238281 86.925781 C 99.316406 88.371094 99.386719 88.703125 99.53125 88.3125 C 99.574219 88.203125 99.960938 87.15625 100.390625 85.984375 C 101.597656 82.722656 101.734375 82.042969 101.726562 79.394531 C 101.722656 76.78125 101.472656 75.589844 100.484375 73.417969 C 99.992188 72.332031 99.960938 72.207031 100.273438 72.582031 C 100.859375 73.289062 101.894531 74.871094 102.257812 75.621094 C 102.445312 76.003906 102.648438 76.320312 102.714844 76.320312 C 103.210938 76.320312 102.03125 70.945312 101.003906 68.519531 C 100.910156 68.292969 101 68.300781 101.828125 68.609375 C 103.09375 69.078125 103.710938 69.1875 103.710938 68.941406 C 103.710938 68.835938 103.539062 68.660156 103.328125 68.546875 C 102.714844 68.21875 101.59375 66.894531 101.164062 65.988281 C 100.769531 65.152344 100.265625 63.308594 100.398438 63.175781 C 100.433594 63.140625 100.570312 63.3125 100.699219 63.5625 C 100.9375 64.019531 101.21875 64.164062 101.21875 63.828125 C 101.21875 63.726562 101.066406 63.085938 100.878906 62.402344 C 100.453125 60.863281 99.800781 59.519531 98.921875 58.382812 L 98.25 57.515625 L 98.527344 56.699219 C 98.917969 55.542969 98.886719 53.527344 98.453125 52.460938 C 97.996094 51.328125 97.375 50.492188 96.457031 49.777344 L 95.65625 49.152344 L 96.351562 48.992188 C 97.859375 48.65625 99.003906 47.777344 97.679688 47.972656 C 96.882812 48.09375 96.179688 47.832031 94.519531 46.789062 C 93.507812 46.15625 92.765625 45.847656 91.003906 45.328125 C 90.746094 45.25 90.773438 44.214844 91.054688 43.515625 C 91.199219 43.148438 91.472656 42.824219 91.792969 42.632812 C 92.457031 42.242188 92.933594 41.203125 92.824219 40.390625 C 92.761719 39.917969 92.894531 39.4375 93.550781 37.8125 C 93.988281 36.714844 94.582031 35.394531 94.863281 34.882812 C 95.144531 34.371094 95.335938 33.910156 95.289062 33.863281 C 95.238281 33.8125 94.769531 33.886719 94.246094 34.023438 C 93.003906 34.347656 91.800781 35.152344 91.316406 35.976562 C 90.984375 36.542969 90.875 36.621094 90.429688 36.621094 C 89.738281 36.621094 88.476562 37.179688 88.476562 37.484375 C 88.476562 37.613281 88.597656 37.796875 88.746094 37.890625 C 89.449219 38.332031 89.652344 39.613281 89.183594 40.644531 C 88.96875 41.117188 88.898438 41.109375 88.144531 40.5625 C 87.402344 40.023438 86.664062 39.695312 86.1875 39.695312 C 85.917969 39.695312 85.839844 39.617188 85.839844 39.339844 C 85.839844 38.8125 86.066406 38.761719 86.40625 39.21875 C 86.785156 39.738281 87.046875 39.597656 87.640625 38.542969 C 88.21875 37.519531 88.234375 36.703125 87.683594 36.226562 C 87.464844 36.042969 87.167969 35.890625 87.019531 35.890625 C 86.8125 35.890625 86.730469 35.734375 86.652344 35.191406 C 86.460938 33.863281 85.953125 32.226562 85.726562 32.226562 C 85.394531 32.226562 84.175781 33.316406 83.636719 34.09375 C 83.164062 34.78125 83.132812 34.800781 82.417969 34.792969 C 81.738281 34.789062 81.65625 34.828125 81.328125 35.304688 C 81.019531 35.757812 80.984375 35.933594 81.046875 36.839844 C 81.085938 37.40625 81.160156 37.972656 81.214844 38.101562 C 81.300781 38.308594 81.117188 38.351562 79.804688 38.4375 C 78.976562 38.488281 78.066406 38.546875 77.78125 38.566406 C 77.269531 38.597656 77.269531 38.597656 77.226562 37.910156 C 77.171875 37.078125 77.558594 36.574219 78.195312 36.648438 C 78.539062 36.6875 78.59375 36.765625 78.636719 37.28125 C 78.660156 37.601562 78.738281 37.921875 78.808594 37.992188 C 79.035156 38.226562 79.804688 37.515625 80.0625 36.839844 C 80.640625 35.324219 79.804688 33.691406 78.449219 33.691406 C 78.125 33.691406 78.078125 33.628906 78.078125 33.207031 C 78.078125 32.941406 77.914062 32.398438 77.710938 32 C 77.273438 31.125 75.175781 28.414062 74.945312 28.425781 C 74.855469 28.429688 74.246094 29.105469 73.589844 29.925781 M 73.9375 30.664062 C 72.570312 32.367188 72.269531 33.191406 72.660156 34.210938 C 72.800781 34.582031 72.789062 34.597656 72.476562 34.5 C 71.535156 34.199219 71.210938 34.234375 70.757812 34.691406 C 70.378906 35.066406 70.3125 35.246094 70.3125 35.867188 C 70.3125 36.273438 70.378906 36.644531 70.460938 36.695312 C 70.539062 36.742188 70.605469 36.6875 70.605469 36.566406 C 70.605469 35.921875 71.953125 35.683594 72.769531 36.183594 C 73.378906 36.550781 73.574219 37.066406 73.503906 38.085938 C 73.359375 40.089844 71.367188 41.460938 69.246094 41.023438 C 67.3125 40.621094 65.921875 38.691406 66.730469 37.53125 C 67 37.148438 67.609375 37.101562 67.984375 37.441406 C 68.226562 37.660156 68.25 37.640625 68.347656 37.117188 C 68.414062 36.761719 68.378906 36.347656 68.246094 35.96875 C 67.972656 35.179688 67.476562 35.101562 66.757812 35.730469 C 66.269531 36.160156 66.253906 36.164062 66.320312 35.832031 C 66.355469 35.640625 66.285156 35.296875 66.167969 35.066406 C 65.859375 34.46875 64.648438 33.203125 64.484375 33.304688 C 64.304688 33.417969 63.882812 34.941406 63.851562 35.59375 C 63.839844 35.878906 63.878906 36.304688 63.941406 36.546875 C 64.054688 36.976562 64.050781 36.980469 63.769531 36.730469 C 63.40625 36.410156 62.757812 36.398438 62.636719 36.707031 C 62.46875 37.144531 62.550781 37.6875 62.859375 38.1875 C 63.164062 38.679688 63.171875 38.683594 63.378906 38.386719 C 63.875 37.679688 64.746094 38.25 64.746094 39.285156 C 64.746094 40.828125 63.058594 42.515625 61.761719 42.273438 C 61.1875 42.164062 60.277344 41.433594 59.964844 40.828125 C 59.632812 40.183594 59.671875 38.988281 60.050781 38.246094 C 60.222656 37.910156 60.328125 37.578125 60.28125 37.507812 C 60.148438 37.292969 59.023438 37.160156 58.84375 37.339844 C 58.585938 37.59375 58.492188 37.53125 58.394531 37.054688 C 58.28125 36.488281 57.21875 35.375 56.523438 35.089844 L 55.992188 34.875 L 56.414062 35.90625 C 56.871094 37.03125 57.445312 37.941406 57.53125 37.679688 C 57.5625 37.585938 57.414062 37.214844 57.199219 36.847656 C 56.984375 36.480469 56.855469 36.179688 56.914062 36.179688 C 57.148438 36.179688 57.871094 37.171875 58.015625 37.699219 C 58.164062 38.230469 58.1875 38.25 58.441406 38.015625 C 58.796875 37.695312 58.859375 37.824219 59.046875 39.28125 C 59.128906 39.953125 59.261719 40.707031 59.339844 40.957031 C 59.507812 41.5 60.03125 42.023438 60.488281 42.113281 C 60.671875 42.148438 60.921875 42.257812 61.042969 42.359375 C 61.417969 42.671875 62.710938 42.585938 63.316406 42.210938 C 64.035156 41.765625 64.707031 40.820312 64.984375 39.867188 C 65.25 38.964844 65.183594 38.445312 64.671875 37.4375 C 64.265625 36.632812 64.234375 36.3125 64.46875 35.367188 C 64.652344 34.640625 64.699219 34.605469 64.988281 34.972656 C 65.601562 35.75 65.820312 36.40625 65.792969 37.421875 C 65.773438 38.25 65.835938 38.582031 66.140625 39.203125 C 66.789062 40.53125 68.195312 41.464844 69.964844 41.746094 L 70.824219 41.878906 L 69.714844 41.839844 C 68.328125 41.785156 67.371094 41.304688 66.339844 40.148438 C 65.875 39.625 65.625 39.433594 65.625 39.597656 C 65.625 39.996094 64.675781 41.777344 64.214844 42.246094 C 63.316406 43.152344 61.597656 43.492188 60.414062 43 C 60.128906 42.878906 59.945312 42.855469 59.996094 42.941406 C 60.34375 43.5 61.992188 43.65625 63.480469 43.273438 C 64.648438 42.972656 65.195312 42.625 65.710938 41.859375 C 65.9375 41.515625 66.144531 41.207031 66.167969 41.171875 C 66.191406 41.140625 66.359375 41.25 66.542969 41.417969 C 67.355469 42.171875 68.101562 42.40625 69.855469 42.457031 C 71.136719 42.496094 71.664062 42.453125 72.144531 42.265625 C 72.9375 41.964844 74.160156 40.6875 74.632812 39.671875 C 74.925781 39.042969 75.003906 38.957031 75.089844 39.191406 C 75.40625 40.089844 75.613281 40.433594 76.257812 41.148438 C 77.265625 42.265625 77.800781 42.472656 79.707031 42.476562 C 81.472656 42.480469 82.230469 42.28125 83.113281 41.574219 C 83.648438 41.140625 83.6875 41.132812 83.832031 41.398438 C 84.226562 42.121094 85.207031 42.898438 86.0625 43.164062 C 87.257812 43.53125 89.144531 43.53125 89.703125 43.164062 C 90.25 42.808594 90.09375 42.6875 89.488281 43 C 88.847656 43.332031 87.316406 43.230469 86.472656 42.796875 C 85.609375 42.355469 84.882812 41.292969 84.3125 39.632812 C 84.226562 39.375 84.191406 39.386719 83.953125 39.777344 C 83.230469 40.972656 81.773438 41.769531 80.203125 41.835938 L 79.175781 41.878906 L 79.980469 41.730469 C 81.289062 41.484375 82.046875 41.152344 82.730469 40.523438 C 83.621094 39.703125 84.082031 38.746094 84.082031 37.714844 C 84.082031 36.585938 84.328125 35.714844 84.8125 35.132812 L 85.222656 34.644531 L 85.398438 35.292969 C 85.492188 35.648438 85.53125 36.242188 85.484375 36.609375 L 85.398438 37.28125 L 85.683594 36.765625 C 85.851562 36.472656 85.976562 35.96875 85.980469 35.585938 C 85.988281 34.847656 85.625 33.464844 85.386719 33.316406 C 85.21875 33.210938 84.199219 34.226562 83.773438 34.921875 C 83.621094 35.171875 83.496094 35.53125 83.496094 35.71875 L 83.496094 36.0625 L 83.046875 35.683594 C 82.492188 35.21875 82.121094 35.199219 81.820312 35.628906 C 81.578125 35.972656 81.511719 37.148438 81.71875 37.46875 C 81.8125 37.621094 81.875 37.613281 82.027344 37.433594 C 82.28125 37.125 82.957031 37.148438 83.253906 37.476562 C 83.574219 37.828125 83.5625 38.625 83.226562 39.261719 C 82.84375 39.980469 81.59375 40.816406 80.589844 41.027344 C 78.660156 41.425781 76.863281 40.320312 76.460938 38.472656 C 76.242188 37.472656 76.492188 36.6875 77.183594 36.222656 C 78.078125 35.621094 79.25 35.890625 79.25 36.699219 C 79.25 36.898438 79.292969 36.929688 79.410156 36.8125 C 79.496094 36.722656 79.566406 36.304688 79.5625 35.886719 C 79.558594 35.308594 79.480469 35.035156 79.242188 34.785156 C 78.832031 34.347656 78.28125 34.21875 77.757812 34.433594 C 77.523438 34.53125 77.304688 34.582031 77.269531 34.546875 C 77.234375 34.507812 77.273438 34.226562 77.359375 33.917969 C 77.609375 33.015625 77.046875 31.898438 75.339844 29.917969 L 74.925781 29.4375 L 73.9375 30.664062 M 74.492188 32.65625 C 74.050781 33.53125 73.667969 35.140625 73.789062 35.609375 C 73.832031 35.777344 74.121094 36.40625 74.429688 37 L 74.988281 38.082031 L 75.28125 37.460938 C 75.441406 37.121094 75.738281 36.554688 75.933594 36.203125 C 76.207031 35.726562 76.277344 35.4375 76.214844 35.03125 C 76.109375 34.34375 75.457031 32.640625 75.136719 32.210938 L 74.886719 31.878906 L 74.492188 32.65625 M 74.75 33.578125 C 74.414062 34.546875 74.378906 35.257812 74.640625 35.804688 C 74.941406 36.445312 75.058594 36.457031 75.296875 35.882812 C 75.511719 35.359375 75.414062 34.050781 75.117188 33.480469 L 74.914062 33.097656 L 74.75 33.578125 M 93.464844 35.03125 C 92.773438 35.292969 91.875 36.167969 91.625 36.828125 C 91.386719 37.449219 91.363281 37.46875 90.925781 37.339844 C 90.449219 37.203125 89.355469 37.410156 89.355469 37.632812 C 89.355469 37.703125 89.464844 37.847656 89.597656 37.957031 C 90.25 38.5 90.421875 39.929688 89.945312 40.863281 C 89.453125 41.824219 88.328125 42.390625 87.328125 42.175781 C 85.914062 41.875 84.679688 39.246094 85.546875 38.378906 C 85.921875 38.003906 86.105469 38.011719 86.523438 38.402344 L 86.859375 38.71875 L 87.152344 38.070312 C 87.3125 37.71875 87.445312 37.324219 87.449219 37.195312 C 87.453125 36.949219 86.867188 36.328125 86.632812 36.328125 C 86.554688 36.328125 86.132812 36.6875 85.699219 37.125 C 84.980469 37.859375 84.90625 37.988281 84.847656 38.71875 C 84.722656 40.226562 85.886719 42.035156 87.273438 42.496094 C 87.90625 42.703125 89.28125 42.445312 89.417969 42.089844 C 89.46875 41.960938 89.597656 41.898438 89.730469 41.949219 C 89.855469 42 89.921875 41.980469 89.878906 41.910156 C 89.832031 41.839844 89.90625 41.691406 90.039062 41.582031 C 90.433594 41.253906 90.640625 40.578125 90.753906 39.257812 C 90.851562 38.085938 90.992188 37.648438 91.269531 37.648438 C 91.332031 37.648438 91.429688 37.777344 91.480469 37.9375 C 91.621094 38.382812 91.800781 38.289062 91.910156 37.714844 C 92.003906 37.210938 92.765625 36.179688 93.042969 36.179688 C 93.121094 36.179688 93.042969 36.378906 92.871094 36.621094 C 92.597656 37.003906 92.226562 37.9375 92.347656 37.9375 C 92.542969 37.9375 94 35.054688 93.867188 34.933594 C 93.84375 34.914062 93.660156 34.957031 93.464844 35.03125 M 64.746094 35.964844 C 64.746094 36.171875 64.859375 36.582031 64.996094 36.882812 L 65.25 37.425781 L 65.296875 36.808594 C 65.347656 36.1875 65.148438 35.59375 64.886719 35.59375 C 64.808594 35.59375 64.746094 35.761719 64.746094 35.964844 M 84.675781 36.144531 C 84.484375 36.835938 84.480469 37.164062 84.667969 37.28125 C 84.859375 37.398438 85.109375 36.734375 85.109375 36.097656 C 85.109375 35.433594 84.867188 35.457031 84.675781 36.144531 M 67.1875 37.890625 C 67.035156 38.042969 67.074219 38.644531 67.246094 38.75 C 67.328125 38.804688 67.5625 38.804688 67.765625 38.753906 L 68.128906 38.664062 L 67.820312 38.226562 C 67.507812 37.789062 67.363281 37.714844 67.1875 37.890625 M 82.171875 38.167969 C 81.875 38.480469 81.851562 38.5625 82.035156 38.675781 C 82.417969 38.921875 82.730469 38.828125 82.824219 38.445312 C 83.003906 37.734375 82.699219 37.605469 82.171875 38.167969 M 58.699219 38.964844 C 58.644531 39.167969 58.605469 39.628906 58.613281 39.992188 L 58.628906 40.648438 L 58.761719 39.84375 C 58.90625 38.960938 58.867188 38.367188 58.699219 38.964844 M 91.140625 39.273438 C 91.125 39.644531 91.039062 40.15625 90.949219 40.414062 C 90.746094 41 90.898438 41.210938 91.117188 40.644531 C 91.203125 40.414062 91.25 39.863281 91.222656 39.414062 C 91.171875 38.632812 91.167969 38.625 91.140625 39.273438 M 91.847656 40.503906 C 91.84375 40.664062 91.707031 41.085938 91.546875 41.4375 C 91.300781 41.980469 91.292969 42.046875 91.5 41.875 C 91.890625 41.554688 92.171875 40.753906 92 40.460938 C 91.867188 40.234375 91.855469 40.238281 91.847656 40.503906 M 57.714844 40.554688 C 57.714844 40.882812 58.113281 41.671875 58.40625 41.933594 C 58.648438 42.148438 58.625 42.046875 58.277344 41.359375 C 57.808594 40.429688 57.714844 40.296875 57.714844 40.554688 M 74.304688 41.527344 L 73.6875 42.332031 L 74.980469 42.296875 L 76.277344 42.261719 L 75.710938 41.617188 C 75.402344 41.265625 75.148438 40.917969 75.148438 40.847656 C 75.148438 40.5625 74.894531 40.769531 74.304688 41.527344 M 66.089844 42.269531 C 65.855469 42.777344 65.855469 42.773438 66.394531 42.769531 C 67.179688 42.765625 67.332031 42.570312 66.824219 42.207031 C 66.277344 41.816406 66.292969 41.816406 66.089844 42.269531 M 83.007812 42.210938 C 82.511719 42.582031 82.6875 42.769531 83.542969 42.769531 L 84.097656 42.773438 L 83.839844 42.335938 C 83.53125 41.816406 83.539062 41.816406 83.007812 42.210938 M 71.484375 43.078125 C 67.464844 43.234375 65.632812 43.425781 63.476562 43.925781 C 62.441406 44.164062 61.25 44.40625 60.828125 44.460938 C 60.40625 44.515625 60.058594 44.617188 60.058594 44.691406 C 60.058594 44.886719 60.285156 44.859375 62.050781 44.472656 C 63.765625 44.09375 66.4375 43.648438 66.886719 43.660156 C 67.039062 43.667969 65.910156 43.957031 64.378906 44.304688 C 60.851562 45.105469 60.351562 45.242188 60.351562 45.414062 C 60.351562 45.605469 60.441406 45.59375 60.90625 45.351562 C 61.597656 44.996094 66.605469 44.25 69.945312 44 C 73.34375 43.75 77.828125 43.785156 81.371094 44.09375 C 83.5 44.277344 88.230469 45.042969 89.074219 45.339844 C 89.796875 45.597656 89.839844 45.601562 89.722656 45.414062 C 89.589844 45.195312 88.40625 44.882812 86.101562 44.453125 C 84.054688 44.070312 82.867188 43.710938 84.226562 43.882812 C 85.125 43.996094 89.203125 44.671875 89.613281 44.773438 C 89.796875 44.820312 89.941406 44.789062 89.941406 44.699219 C 89.941406 44.613281 89.695312 44.503906 89.390625 44.457031 C 89.089844 44.40625 87.886719 44.175781 86.71875 43.9375 C 85.550781 43.703125 83.96875 43.445312 83.203125 43.363281 C 81.625 43.195312 75.996094 42.910156 75 42.945312 C 74.636719 42.957031 73.054688 43.015625 71.484375 43.078125 M 71.558594 44.660156 C 71.015625 44.746094 70.96875 44.789062 70.871094 45.335938 C 70.761719 45.941406 70.847656 46.992188 71.027344 47.285156 C 71.097656 47.398438 72.320312 47.453125 75.003906 47.46875 L 78.882812 47.488281 L 78.988281 46.707031 C 79.046875 46.273438 79.054688 45.652344 79.011719 45.324219 L 78.929688 44.722656 L 76.941406 44.625 C 74.664062 44.515625 72.410156 44.53125 71.558594 44.660156 M 68.847656 44.773438 C 67.320312 44.882812 64.867188 45.3125 64.671875 45.503906 C 64.199219 45.976562 64.285156 47.457031 64.808594 47.894531 C 64.953125 48.011719 65.597656 47.996094 67.242188 47.832031 C 68.46875 47.707031 69.761719 47.609375 70.113281 47.609375 C 70.828125 47.609375 70.84375 47.574219 70.519531 46.789062 C 70.296875 46.261719 70.304688 45.832031 70.542969 45.007812 C 70.648438 44.648438 70.648438 44.648438 68.847656 44.773438 M 74.179688 45.09375 C 73.230469 45.78125 73.144531 45.945312 73.523438 46.347656 C 73.699219 46.535156 74.101562 46.808594 74.414062 46.949219 C 74.976562 47.203125 74.988281 47.203125 75.613281 46.832031 C 76.773438 46.144531 76.847656 46.0625 76.605469 45.765625 C 76.34375 45.449219 75.152344 44.679688 74.921875 44.679688 C 74.828125 44.679688 74.492188 44.863281 74.179688 45.09375 M 79.324219 45.121094 C 79.566406 45.59375 79.566406 45.964844 79.320312 47.105469 L 79.222656 47.558594 L 81.535156 47.738281 C 82.808594 47.835938 84.128906 47.953125 84.46875 48 C 85.035156 48.078125 85.097656 48.050781 85.292969 47.664062 C 85.78125 46.703125 85.726562 45.566406 85.183594 45.359375 C 84.863281 45.234375 82.003906 44.867188 80.367188 44.738281 L 79.070312 44.636719 L 79.324219 45.121094 M 71.574219 45.203125 C 71.429688 45.578125 71.472656 46.851562 71.632812 46.949219 C 71.722656 47.003906 71.777344 46.65625 71.777344 46.003906 C 71.777344 44.957031 71.734375 44.785156 71.574219 45.203125 M 78.027344 45.320312 C 77.882812 45.703125 77.910156 46.84375 78.066406 46.941406 C 78.261719 47.0625 78.433594 45.742188 78.265625 45.375 C 78.140625 45.089844 78.121094 45.085938 78.027344 45.320312 M 66.363281 45.496094 C 65.769531 45.753906 65.628906 45.929688 65.628906 46.449219 C 65.625 47.058594 66.101562 47.367188 67.148438 47.433594 C 68.191406 47.5 68.832031 47.257812 69.234375 46.644531 C 69.539062 46.179688 69.328125 45.621094 68.765625 45.40625 C 68.210938 45.195312 66.945312 45.242188 66.363281 45.496094 M 74.457031 45.628906 C 74.058594 45.988281 74.054688 46.003906 74.332031 46.214844 C 74.699219 46.5 75.144531 46.496094 75.5625 46.199219 L 75.898438 45.964844 L 75.570312 45.613281 C 75.15625 45.171875 74.96875 45.175781 74.457031 45.628906 M 81.039062 45.445312 C 80.304688 45.796875 80.5 46.886719 81.367188 47.25 C 82.027344 47.523438 83.25 47.519531 83.792969 47.238281 C 84.683594 46.78125 84.449219 45.757812 83.382812 45.4375 C 82.671875 45.222656 81.488281 45.226562 81.039062 45.445312 M 63.484375 45.78125 C 63.027344 46.480469 63.507812 48.195312 64.164062 48.195312 C 64.515625 48.195312 64.519531 48.140625 64.207031 47.660156 C 63.90625 47.203125 63.875 45.972656 64.148438 45.640625 C 64.316406 45.441406 64.300781 45.410156 64.035156 45.410156 C 63.867188 45.410156 63.617188 45.578125 63.484375 45.78125 M 85.933594 45.726562 C 86.113281 46.226562 86.050781 47.085938 85.796875 47.589844 C 85.601562 47.984375 85.601562 48.035156 85.816406 48.121094 C 86.367188 48.328125 86.875 47.003906 86.628906 46.011719 C 86.53125 45.617188 86.410156 45.472656 86.15625 45.433594 C 85.851562 45.390625 85.828125 45.425781 85.933594 45.726562 M 62.636719 45.789062 C 62.476562 46.210938 62.546875 47.316406 62.769531 47.855469 C 63.070312 48.570312 63.21875 48.363281 62.992188 47.550781 C 62.890625 47.191406 62.835938 46.597656 62.863281 46.226562 C 62.917969 45.558594 62.808594 45.347656 62.636719 45.789062 M 66.394531 45.773438 C 65.410156 46.203125 65.972656 47.167969 67.203125 47.167969 C 68.199219 47.167969 69.167969 46.511719 68.871094 46.035156 C 68.582031 45.566406 67.207031 45.421875 66.394531 45.773438 M 81.640625 45.660156 C 80.78125 45.824219 80.886719 46.714844 81.800781 47.015625 C 82.085938 47.113281 82.46875 47.160156 82.652344 47.125 C 82.898438 47.078125 82.863281 47.054688 82.515625 47.042969 C 82.257812 47.03125 81.867188 46.863281 81.640625 46.671875 C 81.292969 46.375 81.261719 46.289062 81.429688 46.089844 C 81.734375 45.722656 82.574219 45.628906 83.144531 45.902344 C 83.726562 46.179688 83.757812 46.316406 83.320312 46.722656 C 82.921875 47.09375 83.195312 47.117188 83.652344 46.75 C 84.457031 46.097656 83.117188 45.371094 81.640625 45.660156 M 87.082031 46.558594 C 87.078125 47.269531 87 47.675781 86.8125 47.960938 C 86.566406 48.339844 86.5625 48.363281 86.804688 48.316406 C 87.316406 48.21875 87.664062 46.339844 87.269531 45.804688 C 87.113281 45.597656 87.085938 45.71875 87.082031 46.558594 M 66.695312 45.878906 C 66.230469 46.101562 66.171875 46.398438 66.523438 46.75 C 66.773438 46.996094 66.957031 47.042969 67.472656 46.984375 C 68.207031 46.902344 68.554688 46.671875 68.554688 46.265625 C 68.554688 45.777344 67.402344 45.535156 66.695312 45.878906 M 60.554688 47.46875 C 60.613281 47.820312 60.6875 48.140625 60.726562 48.175781 C 60.828125 48.277344 61.523438 47.582031 61.523438 47.378906 C 61.523438 47.28125 61.40625 47.167969 61.265625 47.128906 C 61.125 47.085938 60.886719 47.003906 60.730469 46.941406 C 60.472656 46.835938 60.460938 46.875 60.554688 47.46875 M 88.953125 47.070312 C 88.386719 47.238281 88.355469 47.453125 88.828125 48 L 89.179688 48.40625 L 89.347656 47.777344 C 89.441406 47.429688 89.5 47.097656 89.472656 47.039062 C 89.449219 46.980469 89.214844 46.992188 88.953125 47.070312 M 68.703125 48.34375 C 65.5625 48.667969 64.425781 48.816406 63.101562 49.082031 C 61.65625 49.375 60.9375 49.617188 60.9375 49.8125 C 60.9375 49.871094 61.332031 49.796875 61.8125 49.648438 C 63.070312 49.257812 68.804688 48.578125 68.53125 48.851562 C 68.488281 48.894531 67.371094 49.09375 66.050781 49.289062 C 63.273438 49.703125 61.363281 50.085938 61.164062 50.265625 C 60.957031 50.453125 61.230469 50.421875 62.660156 50.109375 C 63.363281 49.953125 64.601562 49.753906 65.40625 49.664062 C 66.210938 49.574219 67.429688 49.421875 68.117188 49.328125 C 70.070312 49.058594 79.496094 49.121094 82.542969 49.421875 C 85.320312 49.695312 86.46875 49.859375 87.796875 50.175781 C 88.84375 50.421875 88.914062 50.429688 88.914062 50.277344 C 88.914062 50.136719 86.042969 49.585938 82.984375 49.132812 L 80.640625 48.789062 L 82.492188 48.855469 C 84.976562 48.941406 87.972656 49.402344 88.804688 49.828125 C 88.960938 49.910156 89.0625 49.90625 89.0625 49.828125 C 89.0625 49.488281 86.5625 48.914062 83.46875 48.546875 C 81.203125 48.277344 70.738281 48.132812 68.703125 48.34375 M 55.648438 50.007812 C 53.953125 50.613281 52.753906 52.136719 52.507812 54.003906 C 52.382812 54.953125 52.796875 56.425781 53.496094 57.507812 C 54.203125 58.597656 55.277344 59.898438 55.433594 59.859375 C 55.753906 59.769531 55.628906 59.441406 54.84375 58.292969 C 54.386719 57.621094 53.863281 56.707031 53.683594 56.261719 C 53.320312 55.355469 53.109375 54.054688 53.328125 54.054688 C 53.40625 54.054688 53.46875 53.945312 53.46875 53.816406 C 53.46875 53.363281 54.242188 52.15625 54.769531 51.800781 C 55.699219 51.164062 57.75 51.03125 58.714844 51.546875 C 58.945312 51.671875 59.101562 51.621094 59.535156 51.277344 L 60.070312 50.851562 L 59.738281 50.542969 C 59.027344 49.878906 56.816406 49.589844 55.648438 50.007812 M 91.367188 50.015625 C 90.617188 50.230469 89.941406 50.609375 89.941406 50.816406 C 89.941406 50.886719 90.167969 51.113281 90.441406 51.324219 C 90.910156 51.679688 90.972656 51.691406 91.429688 51.503906 C 93.53125 50.648438 95.722656 51.527344 96.296875 53.460938 C 96.800781 55.15625 96.570312 56.097656 95.089844 58.355469 C 94.378906 59.445312 94.1875 59.914062 94.449219 59.914062 C 94.691406 59.914062 96.3125 57.757812 96.8125 56.769531 C 97.292969 55.824219 97.339844 55.632812 97.335938 54.492188 C 97.335938 53.53125 97.265625 53.089844 97.019531 52.5625 C 96.605469 51.65625 95.636719 50.625 94.839844 50.242188 C 94.023438 49.84375 92.335938 49.734375 91.367188 50.015625 M 56.398438 52.296875 C 56.140625 52.378906 56.335938 52.414062 57.054688 52.414062 C 57.777344 52.414062 57.972656 52.378906 57.714844 52.296875 C 57.511719 52.230469 57.21875 52.175781 57.054688 52.175781 C 56.894531 52.175781 56.597656 52.230469 56.398438 52.296875 M 92.542969 52.402344 C 92.808594 52.433594 93.203125 52.433594 93.421875 52.398438 C 93.644531 52.367188 93.429688 52.339844 92.945312 52.339844 C 92.460938 52.339844 92.28125 52.367188 92.542969 52.402344 M 70.222656 53.441406 C 70.265625 53.507812 70.566406 53.652344 70.898438 53.757812 C 71.886719 54.085938 71.777344 54.25 70.664062 54.113281 C 68.449219 53.84375 67.664062 54.042969 66.109375 55.28125 C 65.207031 55.996094 64.945312 56.421875 65.660156 56 C 66.722656 55.378906 66.664062 55.558594 65.402344 56.789062 C 62.875 59.265625 62.449219 59.90625 62.613281 61.003906 C 62.695312 61.546875 63.410156 62.703125 63.421875 62.308594 C 63.425781 62.214844 63.523438 62.105469 63.640625 62.058594 C 63.773438 62.007812 63.824219 62.046875 63.777344 62.167969 C 63.71875 62.324219 63.910156 62.320312 64.773438 62.152344 C 65.382812 62.03125 66.335938 61.96875 66.980469 62 C 67.933594 62.050781 68.179688 62.117188 68.496094 62.414062 C 68.984375 62.871094 69.242188 63.375 69.433594 64.253906 C 69.519531 64.644531 69.757812 65.316406 69.964844 65.742188 C 70.171875 66.171875 70.386719 66.6875 70.441406 66.890625 L 70.539062 67.257812 L 71.160156 66.632812 C 72.050781 65.730469 71.921875 66.238281 70.917969 67.566406 C 69.824219 69.011719 69.339844 70.101562 69.097656 71.644531 C 68.859375 73.183594 68.660156 72.972656 68.578125 71.089844 L 68.519531 69.742188 L 67.863281 70.550781 C 67.5 70.992188 67.171875 71.320312 67.128906 71.277344 C 67.085938 71.234375 67.402344 70.6875 67.835938 70.0625 C 68.660156 68.855469 68.742188 68.503906 68.496094 67.1875 C 68.421875 66.78125 68.332031 66.648438 68.179688 66.707031 C 68.0625 66.75 67.96875 66.726562 67.96875 66.65625 C 67.96875 66.320312 67.46875 66.0625 66.816406 66.0625 C 66.003906 66.0625 65.210938 65.609375 64.527344 64.75 C 64.070312 64.179688 63.410156 63.71875 63.050781 63.71875 C 62.933594 63.71875 62.84375 63.660156 62.84375 63.585938 C 62.84375 63.390625 62.203125 62.414062 62.074219 62.410156 C 62.011719 62.40625 61.960938 62.527344 61.960938 62.683594 C 61.960938 62.835938 61.917969 63.082031 61.863281 63.222656 C 61.773438 63.460938 61.757812 63.460938 61.65625 63.199219 C 61.578125 63 61.539062 63.109375 61.535156 63.558594 C 61.527344 64.007812 61.320312 64.617188 60.839844 65.609375 C 60.226562 66.867188 60.15625 67.121094 60.160156 68 C 60.167969 69.382812 60.570312 70.179688 62.261719 72.175781 C 62.414062 72.351562 62.714844 72.765625 62.929688 73.089844 C 63.324219 73.691406 63.574219 73.84375 63.574219 73.484375 C 63.574219 73.125 62.710938 71.566406 62.117188 70.851562 C 61.414062 70.003906 61.230469 69.417969 61.230469 68.003906 C 61.230469 66.847656 61.429688 66.585938 61.582031 67.542969 C 61.742188 68.542969 62.226562 69.28125 63.644531 70.675781 L 65.003906 72.007812 L 65.316406 71.554688 C 65.484375 71.304688 65.828125 70.90625 66.078125 70.667969 L 66.53125 70.238281 L 65.984375 71.285156 C 65.554688 72.113281 65.425781 72.546875 65.367188 73.371094 C 65.328125 73.945312 65.351562 74.414062 65.421875 74.410156 C 65.492188 74.40625 65.703125 74.160156 65.890625 73.859375 C 66.207031 73.359375 67.382812 72.3125 67.5 72.433594 C 67.527344 72.460938 67.320312 72.820312 67.039062 73.226562 C 66.757812 73.636719 66.421875 74.320312 66.289062 74.742188 C 66.15625 75.164062 65.941406 75.703125 65.8125 75.9375 C 65.597656 76.335938 65.597656 76.378906 65.859375 76.570312 C 66.589844 77.121094 67.410156 77.5 68.480469 77.789062 C 70.011719 78.207031 70.335938 78.410156 69.289062 78.292969 C 68.3125 78.183594 66.957031 77.832031 66.078125 77.460938 C 65.703125 77.300781 65.375 77.242188 65.300781 77.316406 C 65.230469 77.386719 65.160156 77.730469 65.140625 78.078125 C 65.117188 78.640625 65.160156 78.738281 65.550781 78.96875 C 66.164062 79.328125 68.035156 79.683594 69.390625 79.699219 C 70.414062 79.710938 70.480469 79.730469 70.019531 79.863281 C 69.277344 80.082031 66.265625 79.921875 65.589844 79.628906 L 65.039062 79.390625 L 65.039062 79.894531 C 65.039062 81.234375 65.808594 81.664062 68.210938 81.664062 C 69.027344 81.664062 69.667969 81.710938 69.636719 81.765625 C 69.5 81.988281 67.835938 82.207031 66.765625 82.144531 C 66.136719 82.109375 65.625 82.105469 65.625 82.140625 C 65.625 82.324219 66.566406 83.519531 67.035156 83.933594 C 68.1875 84.945312 69.296875 85.183594 70.441406 84.664062 C 71.390625 84.230469 73.921875 82.496094 74.1875 82.097656 C 74.320312 81.890625 74.414062 81.425781 74.414062 80.949219 C 74.414062 80.242188 74.347656 80.070312 73.828125 79.410156 C 73.105469 78.496094 71.988281 77.597656 70.984375 77.125 C 69.324219 76.339844 68.703125 75.476562 68.703125 73.976562 L 68.703125 73.316406 L 69.128906 74.046875 C 69.851562 75.300781 70.75 75.941406 70.75 75.203125 C 70.75 75.082031 70.972656 74.894531 71.238281 74.78125 C 71.667969 74.601562 71.882812 74.613281 73.027344 74.863281 C 74.578125 75.203125 75.253906 75.214844 76.335938 74.933594 C 76.78125 74.820312 77.476562 74.679688 77.878906 74.625 C 78.566406 74.535156 78.636719 74.558594 79.09375 75.011719 L 79.578125 75.496094 L 80.109375 74.917969 C 80.402344 74.601562 80.75 74.175781 80.886719 73.976562 L 81.136719 73.609375 L 81.144531 74.195312 C 81.160156 75.648438 80.589844 76.402344 78.851562 77.222656 C 77.839844 77.703125 76.316406 79.054688 75.753906 79.980469 C 75.28125 80.753906 75.332031 81.605469 75.886719 82.234375 C 76.410156 82.832031 78.339844 84.101562 79.519531 84.625 C 80.167969 84.910156 80.488281 84.972656 80.992188 84.902344 C 82.074219 84.753906 83.5625 83.621094 84.136719 82.503906 L 84.34375 82.105469 L 82.710938 82.09375 C 81.640625 82.085938 80.910156 82.011719 80.59375 81.875 C 80.128906 81.675781 80.171875 81.667969 81.421875 81.714844 C 82.878906 81.773438 84.148438 81.496094 84.566406 81.035156 C 84.703125 80.886719 84.855469 80.445312 84.910156 80.054688 C 85 79.394531 84.988281 79.355469 84.726562 79.464844 C 83.582031 79.949219 80.246094 80.195312 79.6875 79.835938 C 79.535156 79.734375 79.855469 79.691406 80.710938 79.6875 C 82.078125 79.683594 83.65625 79.398438 84.363281 79.035156 C 84.777344 78.820312 84.8125 78.738281 84.8125 78.066406 C 84.8125 77.609375 84.746094 77.308594 84.628906 77.261719 C 84.523438 77.222656 84.035156 77.355469 83.539062 77.558594 C 82.792969 77.859375 80.535156 78.367188 79.9375 78.367188 C 79.5625 78.367188 80.046875 78.183594 81.285156 77.851562 C 82.804688 77.445312 83.394531 77.179688 83.972656 76.640625 C 84.328125 76.308594 84.351562 76.230469 84.183594 75.960938 C 84.078125 75.796875 83.871094 75.328125 83.71875 74.925781 C 83.40625 74.074219 83.15625 73.648438 82.578125 72.96875 C 82.347656 72.699219 82.195312 72.445312 82.238281 72.402344 C 82.375 72.265625 83.339844 73.089844 83.964844 73.875 L 84.5625 74.632812 L 84.484375 73.359375 C 84.417969 72.238281 84.34375 71.964844 83.855469 71.089844 C 83.332031 70.140625 83.324219 70.109375 83.710938 70.460938 C 83.929688 70.660156 84.300781 71.097656 84.53125 71.429688 L 84.953125 72.035156 L 86.480469 70.550781 C 87.820312 69.25 88.035156 68.96875 88.242188 68.273438 C 88.371094 67.835938 88.476562 67.390625 88.476562 67.28125 C 88.476562 67.175781 88.550781 67.089844 88.644531 67.089844 C 88.761719 67.089844 88.785156 67.394531 88.726562 68.121094 C 88.625 69.308594 88.210938 70.300781 87.328125 71.46875 C 86.785156 72.183594 86.15625 73.605469 86.3125 73.765625 C 86.347656 73.800781 86.703125 73.425781 87.097656 72.9375 C 89.359375 70.132812 89.6875 69.503906 89.710938 67.894531 C 89.71875 67.144531 89.632812 66.832031 89.105469 65.765625 C 88.507812 64.542969 88.136719 63.375 88.296875 63.214844 C 88.34375 63.171875 88.304688 63.132812 88.210938 63.132812 C 88.121094 63.132812 87.988281 62.921875 87.914062 62.660156 L 87.785156 62.183594 L 87.589844 62.621094 C 87.484375 62.863281 87.300781 63.175781 87.183594 63.3125 C 87.066406 63.457031 87.011719 63.707031 87.058594 63.898438 C 87.140625 64.21875 87.136719 64.222656 86.933594 63.953125 C 86.742188 63.695312 86.683594 63.6875 86.332031 63.878906 C 86.117188 63.992188 85.703125 64.371094 85.414062 64.722656 C 84.722656 65.554688 83.847656 66.066406 83.117188 66.058594 L 82.542969 66.054688 L 83.320312 65.785156 C 84.386719 65.417969 85.300781 64.492188 85.613281 63.464844 C 85.695312 63.1875 85.660156 63.136719 85.375 63.140625 C 85.144531 63.144531 84.898438 63.339844 84.625 63.734375 C 84.164062 64.402344 83.609375 64.683594 82.554688 64.792969 C 82.027344 64.847656 81.757812 64.960938 81.566406 65.210938 C 81.21875 65.65625 80.960938 66.496094 81.035156 66.949219 C 81.089844 67.285156 81.109375 67.269531 81.335938 66.757812 C 81.480469 66.429688 81.730469 66.152344 81.960938 66.0625 C 82.46875 65.871094 82.46875 65.867188 82.277344 66.265625 C 82.1875 66.460938 82.035156 66.585938 81.9375 66.546875 C 81.753906 66.480469 81.523438 67.113281 81.351562 68.15625 C 81.269531 68.644531 81.347656 68.855469 82.011719 69.941406 C 82.425781 70.617188 82.761719 71.226562 82.757812 71.292969 C 82.757812 71.355469 82.429688 71.046875 82.03125 70.605469 L 81.308594 69.800781 L 81.304688 71.144531 C 81.300781 71.886719 81.238281 72.527344 81.167969 72.574219 C 81.09375 72.617188 80.960938 72.222656 80.867188 71.695312 C 80.578125 70.023438 80.222656 69.316406 78.40625 66.773438 C 77.902344 66.070312 78.011719 65.988281 78.6875 66.566406 C 79.359375 67.140625 79.539062 67.203125 79.539062 66.867188 C 79.539062 66.746094 79.703125 66.332031 79.90625 65.949219 C 80.105469 65.566406 80.378906 64.808594 80.511719 64.261719 C 80.691406 63.539062 80.902344 63.105469 81.292969 62.667969 C 81.777344 62.121094 81.902344 62.058594 82.667969 61.996094 C 83.132812 61.957031 83.988281 62 84.566406 62.089844 C 86.804688 62.441406 86.613281 62.453125 86.96875 61.929688 C 87.429688 61.246094 87.539062 60.363281 87.238281 59.78125 C 86.808594 58.945312 84.960938 56.988281 83.960938 56.304688 C 83 55.652344 83.164062 55.558594 84.28125 56.125 C 84.59375 56.28125 84.878906 56.382812 84.910156 56.347656 C 85.035156 56.226562 83.214844 54.777344 82.378906 54.332031 C 81.546875 53.890625 81.476562 53.878906 80.234375 53.96875 C 79.527344 54.019531 78.851562 54.101562 78.734375 54.148438 C 78.246094 54.335938 78.558594 53.941406 79.136719 53.640625 L 79.761719 53.3125 L 79.027344 53.398438 C 77.480469 53.578125 75.910156 54.730469 75.605469 55.910156 C 75.398438 56.695312 75.25 58.257812 75.394531 58.082031 C 75.457031 58 75.644531 57.851562 75.804688 57.753906 C 77.378906 56.785156 77.890625 56.515625 78.28125 56.449219 C 78.683594 56.378906 78.648438 56.421875 77.984375 56.816406 C 76.324219 57.800781 75.4375 59.367188 75.4375 61.316406 C 75.4375 62.621094 75.144531 65.1875 74.996094 65.1875 C 74.824219 65.1875 74.691406 64.355469 74.503906 62.035156 C 74.238281 58.84375 73.746094 57.917969 71.660156 56.722656 C 71.019531 56.351562 70.929688 56.261719 71.265625 56.332031 C 71.960938 56.476562 73.511719 57.261719 74.085938 57.765625 L 74.609375 58.226562 L 74.507812 57.144531 C 74.332031 55.257812 73.371094 54.035156 71.660156 53.519531 C 70.925781 53.296875 70.109375 53.253906 70.222656 53.441406 M 69.382812 58.976562 C 68.625 60.183594 68.597656 60.480469 69.121094 61.601562 C 69.363281 62.121094 69.585938 62.546875 69.609375 62.546875 C 69.632812 62.546875 69.652344 62.070312 69.65625 61.484375 C 69.65625 60.589844 69.71875 60.3125 70.066406 59.722656 C 70.480469 59.015625 70.492188 58.632812 70.101562 58.308594 C 69.945312 58.175781 69.796875 58.3125 69.382812 58.976562 M 79.691406 58.4375 C 79.46875 58.859375 79.503906 59.09375 79.90625 59.851562 C 80.195312 60.394531 80.273438 60.761719 80.28125 61.582031 L 80.289062 62.621094 L 80.710938 61.816406 C 81.308594 60.691406 81.28125 60.15625 80.570312 59.054688 C 80.25 58.558594 79.953125 58.15625 79.914062 58.15625 C 79.875 58.15625 79.777344 58.28125 79.691406 58.4375 M 67.542969 60.210938 C 67.53125 60.71875 67.515625 60.730469 67.007812 60.671875 C 66.433594 60.605469 65.457031 60.929688 64.890625 61.378906 L 64.527344 61.671875 L 65.1875 61.4375 C 66.003906 61.148438 67.480469 61.25 68.285156 61.648438 C 68.960938 61.980469 69 61.871094 68.40625 61.304688 C 68.167969 61.070312 67.964844 60.8125 67.960938 60.726562 C 67.957031 60.640625 67.863281 60.375 67.753906 60.132812 L 67.554688 59.691406 L 67.542969 60.210938 M 82.207031 60.105469 C 82.109375 60.332031 82.03125 60.566406 82.03125 60.625 C 82.03125 60.683594 81.800781 60.957031 81.519531 61.230469 C 80.839844 61.886719 80.871094 62 81.625 61.636719 C 82.300781 61.3125 84.269531 61.191406 84.960938 61.433594 L 85.328125 61.558594 L 84.960938 61.273438 C 84.472656 60.890625 83.726562 60.644531 83.042969 60.644531 C 82.527344 60.644531 82.484375 60.613281 82.4375 60.167969 L 82.382812 59.691406 L 82.207031 60.105469 M 71.335938 62.683594 C 70.976562 62.816406 70.578125 62.964844 70.460938 63.007812 C 70.269531 63.082031 70.273438 63.128906 70.488281 63.375 C 70.625 63.527344 70.78125 63.9375 70.839844 64.28125 L 70.9375 64.90625 L 71.183594 64.179688 C 71.320312 63.78125 71.609375 63.214844 71.832031 62.925781 C 72.277344 62.34375 72.269531 62.339844 71.335938 62.683594 M 78.058594 62.914062 C 78.328125 63.226562 78.652344 63.714844 78.773438 64.003906 L 78.992188 64.527344 L 79.1875 63.792969 C 79.292969 63.390625 79.382812 63.050781 79.386719 63.039062 C 79.390625 63.027344 79.113281 62.917969 78.773438 62.796875 C 78.429688 62.679688 78.015625 62.527344 77.855469 62.464844 C 77.636719 62.375 77.6875 62.492188 78.058594 62.914062 M 66.070312 62.761719 C 65.511719 63.4375 67.128906 64.570312 67.910156 64.046875 C 68.171875 63.871094 68.4375 63.273438 68.351562 63.050781 C 68.246094 62.777344 67.875 62.78125 67.769531 63.0625 C 67.632812 63.417969 67.097656 63.324219 66.945312 62.914062 C 66.789062 62.507812 66.347656 62.429688 66.070312 62.761719 M 82.992188 62.921875 C 82.679688 63.398438 81.933594 63.390625 82 62.914062 C 82.039062 62.625 82.035156 62.625 81.816406 62.90625 C 81.128906 63.777344 82.234375 64.515625 83.355469 63.9375 C 83.839844 63.6875 84.058594 63.09375 83.789062 62.765625 C 83.523438 62.449219 83.269531 62.5 82.992188 62.921875 M 64.347656 63.242188 C 64.214844 63.289062 64.25 63.46875 64.472656 63.914062 C 65.074219 65.113281 65.804688 65.628906 67.304688 65.90625 C 67.78125 65.992188 68.1875 66.0625 68.210938 66.0625 C 68.234375 66.0625 68.378906 66.308594 68.53125 66.605469 C 68.789062 67.105469 68.816406 67.121094 68.910156 66.828125 C 69.019531 66.484375 68.597656 65.371094 68.25 65.09375 C 68.136719 65.003906 67.675781 64.882812 67.226562 64.832031 C 66.269531 64.714844 65.558594 64.324219 65.214844 63.726562 C 64.96875 63.292969 64.675781 63.132812 64.347656 63.242188 M 73.671875 85.164062 C 73.304688 85.269531 72.707031 85.53125 72.339844 85.746094 C 71.527344 86.222656 71.265625 86.25 71.484375 85.839844 C 71.734375 85.371094 71.441406 85.5 70.824219 86.132812 C 70.511719 86.453125 70.171875 86.703125 70.074219 86.683594 C 69.976562 86.660156 69.621094 86.941406 69.285156 87.304688 L 68.671875 87.964844 L 68.820312 86.792969 L 68.621094 87.230469 C 68.511719 87.472656 68.417969 87.894531 68.414062 88.167969 C 68.410156 88.660156 68.414062 88.664062 68.703125 88.402344 C 69.109375 88.035156 69.164062 88.160156 68.933594 88.929688 C 68.769531 89.472656 68.765625 89.660156 68.925781 90.019531 L 69.117188 90.453125 L 69.140625 90.015625 C 69.152344 89.773438 69.214844 89.445312 69.28125 89.28125 L 69.402344 88.988281 L 69.511719 89.28125 C 69.792969 90.046875 70.175781 90.78125 70.457031 91.113281 C 70.761719 91.46875 70.769531 91.46875 70.679688 91.148438 C 70.578125 90.789062 70.738281 90.71875 71.015625 90.996094 C 71.152344 91.132812 71.191406 91.074219 71.191406 90.726562 C 71.191406 90.480469 71.25 90.085938 71.324219 89.851562 C 71.398438 89.621094 71.5 89.246094 71.546875 89.027344 C 71.714844 88.269531 71.886719 88.621094 71.953125 89.84375 C 72.003906 90.863281 72.089844 91.195312 72.457031 91.851562 C 72.902344 92.640625 73.347656 93.019531 73.195312 92.484375 C 73.152344 92.335938 73.070312 91.851562 73.015625 91.410156 C 72.867188 90.261719 73.183594 90.589844 73.882812 92.316406 C 74.507812 93.859375 74.761719 94.265625 75.003906 94.113281 C 75.097656 94.054688 75.546875 93.242188 76.003906 92.304688 C 76.800781 90.667969 76.832031 90.621094 76.875 91.148438 C 76.902344 91.453125 76.96875 91.699219 77.023438 91.695312 C 77.46875 91.6875 77.804688 90.929688 77.917969 89.683594 C 78.042969 88.335938 78.246094 88.4375 78.660156 90.058594 C 78.796875 90.585938 78.871094 90.675781 79.109375 90.597656 C 79.269531 90.546875 79.394531 90.574219 79.394531 90.664062 C 79.394531 91.195312 80.027344 90.289062 80.332031 89.320312 C 80.46875 88.875 80.683594 89.039062 80.789062 89.667969 C 80.859375 90.09375 80.929688 90.210938 81.019531 90.070312 C 81.214844 89.761719 81.175781 89.097656 80.9375 88.632812 C 80.65625 88.089844 80.820312 87.949219 81.257812 88.359375 L 81.605469 88.6875 L 81.503906 88.03125 C 81.367188 87.125 81.164062 86.792969 81.152344 87.453125 L 81.140625 87.964844 L 80.640625 87.378906 C 80.363281 87.054688 80.042969 86.792969 79.929688 86.789062 C 79.8125 86.789062 79.449219 86.507812 79.117188 86.167969 C 78.464844 85.496094 78.101562 85.339844 78.375 85.851562 C 78.617188 86.300781 78.445312 86.355469 77.898438 86.007812 C 76.464844 85.089844 74.960938 84.789062 73.671875 85.164062 M 99.316406 113.605469 C 99.316406 113.734375 99.382812 113.792969 99.460938 113.746094 C 99.546875 113.691406 99.609375 113.839844 99.609375 114.097656 C 99.609375 114.378906 99.542969 114.523438 99.425781 114.496094 C 99.324219 114.472656 99.292969 114.480469 99.351562 114.515625 C 99.414062 114.546875 99.460938 114.804688 99.460938 115.085938 C 99.460938 115.386719 99.523438 115.558594 99.609375 115.503906 C 99.691406 115.453125 99.761719 115.566406 99.769531 115.75 C 99.785156 116.082031 99.789062 116.082031 99.886719 115.722656 C 99.96875 115.429688 100.007812 115.402344 100.082031 115.597656 C 100.132812 115.730469 100.140625 115.996094 100.097656 116.183594 C 100.039062 116.457031 100.054688 116.484375 100.179688 116.308594 C 100.308594 116.132812 100.335938 116.167969 100.339844 116.5 C 100.339844 116.738281 100.402344 116.875 100.488281 116.820312 C 100.570312 116.773438 100.632812 116.816406 100.632812 116.917969 C 100.632812 117.3125 101.117188 118.347656 101.261719 118.261719 C 101.347656 118.207031 101.367188 118.238281 101.308594 118.332031 C 101.203125 118.507812 101.476562 119.652344 101.683594 119.890625 C 101.753906 119.96875 101.8125 119.808594 101.824219 119.523438 L 101.84375 119.019531 L 101.992188 119.640625 C 102.074219 119.984375 102.203125 120.265625 102.28125 120.265625 C 102.359375 120.265625 102.378906 120.148438 102.324219 120.007812 C 102.265625 119.867188 102.183594 119.539062 102.140625 119.277344 C 102.097656 119.015625 101.972656 118.726562 101.859375 118.636719 C 101.75 118.546875 101.660156 118.316406 101.660156 118.132812 C 101.660156 117.945312 101.5625 117.695312 101.441406 117.574219 C 101.320312 117.453125 101.21875 117.226562 101.21875 117.066406 C 101.21875 116.910156 101.113281 116.738281 100.984375 116.6875 C 100.839844 116.632812 100.785156 116.507812 100.84375 116.359375 C 100.898438 116.21875 100.660156 115.554688 100.269531 114.75 C 99.644531 113.46875 99.316406 113.074219 99.316406 113.605469 M 88.964844 114.476562 C 88.964844 115.042969 88.992188 115.253906 89.023438 114.949219 C 89.054688 114.644531 89.054688 114.183594 89.023438 113.925781 C 88.988281 113.664062 88.964844 113.914062 88.964844 114.476562 "/>
</g>
</svg>
